<svg width="742" height="138" viewBox="0 0 742 138" fill="none" xmlns="http://www.w3.org/2000/svg">
<path d="M370 3L370 131" stroke="#E6E6E6" stroke-width="3" stroke-dasharray="6 6"/>
<line x1="275" y1="40.5" x2="467" y2="40.5" stroke="#ACACAC" stroke-width="3"/>
<line x1="67" y1="40.5" x2="234" y2="40.5" stroke="#ACACAC" stroke-width="3"/>
<line x1="508" y1="40.5" x2="675" y2="40.5" stroke="#ACACAC" stroke-width="3"/>
<path d="M275.364 59.4546C275.364 61.0589 274.059 62.3636 272.455 62.3636H237.545C235.941 62.3636 234.636 61.0589 234.636 59.4546V53.6364H275.364V59.4545V59.4546ZM238.536 24.1266C238.639 23.4362 238.987 22.8056 239.515 22.3489C240.043 21.8922 240.716 21.6394 241.415 21.6364H268.585C269.284 21.6394 269.957 21.8922 270.485 22.3489C271.013 22.8056 271.361 23.4362 271.464 24.1266L275.333 50.7272H234.667L238.536 24.1266ZM274.343 23.7076C274.141 22.3243 273.449 21.0598 272.392 20.1452C271.334 19.2307 269.983 18.7273 268.585 18.7273H241.415C240.017 18.7273 238.666 19.2307 237.608 20.1452C236.551 21.0598 235.859 22.3243 235.657 23.7076L231.727 50.7272V59.4546C231.727 60.2186 231.878 60.9752 232.17 61.6811C232.463 62.387 232.891 63.0284 233.431 63.5686C233.972 64.1089 234.613 64.5374 235.319 64.8298C236.025 65.1222 236.781 65.2727 237.545 65.2727H272.455C273.998 65.2727 275.477 64.6597 276.569 63.5686C277.66 62.4775 278.273 60.9976 278.273 59.4546V50.7272L274.343 23.7076Z" fill="#2C2C2C"/>
<path d="M239 56.5454H241.909V59.4546H239V56.5454ZM244.818 56.5454H247.727V59.4546H244.818V56.5454H244.818ZM250.636 56.5454H253.545V59.4546H250.636V56.5454ZM256.454 56.5454H259.364V59.4546H256.455V56.5454H256.454ZM262.273 56.5454H265.182V59.4546H262.273V56.5454ZM268.091 56.5454H271V59.4546H268.091V56.5454H268.091ZM264.105 33.8152L267.764 30.176C267.791 30.149 267.812 30.1169 267.827 30.0816C267.841 30.0463 267.849 30.0084 267.849 29.9702C267.849 29.932 267.841 29.8941 267.827 29.8588C267.812 29.8235 267.791 29.7914 267.764 29.7644L264.098 26.0814C264.057 26.0422 264.005 26.0159 263.949 26.0058C263.893 25.9957 263.836 26.0021 263.783 26.0244C263.731 26.0467 263.687 26.0838 263.655 26.1312C263.624 26.1786 263.607 26.2341 263.607 26.2909V28.5164H259.243C259.003 28.5161 258.767 28.575 258.556 28.6879C258.344 28.8009 258.164 28.9643 258.031 29.1636L254.878 33.8938L251.724 29.1636C251.592 28.9639 251.412 28.8001 251.201 28.6869C250.99 28.5737 250.754 28.5146 250.514 28.5149H246.151V26.3084C246.15 26.2514 246.132 26.196 246.1 26.1489C246.068 26.1018 246.023 26.0652 245.97 26.0435C245.918 26.0218 245.86 26.0161 245.804 26.027C245.748 26.0378 245.697 26.0649 245.656 26.1047L241.993 29.7644C241.966 29.7914 241.945 29.8235 241.93 29.8588C241.916 29.8941 241.908 29.932 241.908 29.9702C241.908 30.0084 241.916 30.0463 241.93 30.0816C241.945 30.1169 241.966 30.149 241.993 30.176L245.656 33.8371C245.697 33.8769 245.748 33.904 245.804 33.9149C245.86 33.9257 245.918 33.92 245.97 33.8983C246.023 33.8766 246.068 33.84 246.1 33.7929C246.132 33.7458 246.15 33.6904 246.151 33.6334V31.424H249.737L253.132 36.5149L249.737 41.6058H244.696C244.31 41.6058 243.94 41.7591 243.667 42.0318C243.395 42.3046 243.241 42.6746 243.241 43.0604C243.241 43.4461 243.395 43.8161 243.667 44.0889C243.94 44.3617 244.31 44.5149 244.696 44.5149H250.514C250.754 44.5153 250.99 44.4564 251.201 44.3435C251.413 44.2306 251.593 44.0671 251.726 43.8676L254.879 39.1374L258.033 43.8676C258.166 44.0667 258.346 44.2299 258.557 44.3428C258.768 44.4557 259.004 44.5148 259.243 44.5149H265.061C265.447 44.5149 265.817 44.3617 266.09 44.0889C266.362 43.8161 266.516 43.4461 266.516 43.0604C266.516 42.6746 266.362 42.3046 266.09 42.0318C265.817 41.7591 265.447 41.6058 265.061 41.6058H260.021L256.628 36.5149L260.021 31.424H263.607V33.6131C263.606 33.6712 263.623 33.7281 263.656 33.7765C263.688 33.8248 263.734 33.8624 263.788 33.8843C263.842 33.9062 263.901 33.9115 263.958 33.8994C264.015 33.8874 264.067 33.8586 264.107 33.8167" fill="#2C2C2C"/>
<path d="M507.364 61.4546C507.364 63.0589 506.059 64.3636 504.455 64.3636H469.545C467.941 64.3636 466.636 63.0589 466.636 61.4546V55.6364H507.364V61.4545V61.4546ZM470.536 26.1266C470.64 25.4362 470.987 24.8056 471.515 24.3489C472.043 23.8922 472.716 23.6394 473.415 23.6364H500.585C501.284 23.6394 501.958 23.8922 502.485 24.3489C503.013 24.8056 503.361 25.4362 503.464 26.1266L507.333 52.7272H466.667L470.536 26.1266ZM506.343 25.7076C506.141 24.3243 505.449 23.0598 504.392 22.1452C503.334 21.2307 501.983 20.7273 500.585 20.7273H473.415C472.017 20.7273 470.666 21.2307 469.608 22.1452C468.551 23.0598 467.859 24.3243 467.657 25.7076L463.727 52.7272V61.4546C463.727 62.2186 463.878 62.9752 464.17 63.6811C464.463 64.387 464.891 65.0284 465.431 65.5686C465.972 66.1089 466.613 66.5374 467.319 66.8298C468.025 67.1222 468.781 67.2727 469.545 67.2727H504.455C505.998 67.2727 507.478 66.6597 508.569 65.5686C509.66 64.4775 510.273 62.9976 510.273 61.4546V52.7272L506.343 25.7076Z" fill="#2C2C2C"/>
<path d="M471 58.5454H473.909V61.4546H471V58.5454ZM476.818 58.5454H479.727V61.4546H476.818V58.5454H476.818ZM482.636 58.5454H485.545V61.4546H482.636V58.5454ZM488.454 58.5454H491.364V61.4546H488.455V58.5454H488.454ZM494.273 58.5454H497.182V61.4546H494.273V58.5454ZM500.091 58.5454H503V61.4546H500.091V58.5454H500.091ZM496.105 35.8152L499.764 32.176C499.791 32.149 499.812 32.1169 499.827 32.0816C499.841 32.0463 499.849 32.0084 499.849 31.9702C499.849 31.932 499.841 31.8941 499.827 31.8588C499.812 31.8235 499.791 31.7914 499.764 31.7644L496.098 28.0814C496.057 28.0422 496.005 28.0159 495.949 28.0058C495.893 27.9957 495.836 28.0021 495.783 28.0244C495.731 28.0467 495.687 28.0838 495.655 28.1312C495.624 28.1786 495.607 28.2341 495.607 28.2909V30.5164H491.243C491.003 30.5161 490.767 30.575 490.556 30.6879C490.344 30.8009 490.164 30.9643 490.031 31.1636L486.878 35.8938L483.724 31.1636C483.592 30.9639 483.412 30.8001 483.201 30.6869C482.99 30.5737 482.754 30.5146 482.514 30.5149H478.151V28.3084C478.15 28.2514 478.132 28.196 478.1 28.1489C478.068 28.1018 478.023 28.0652 477.97 28.0435C477.918 28.0218 477.86 28.0161 477.804 28.027C477.748 28.0378 477.697 28.0649 477.656 28.1047L473.993 31.7644C473.966 31.7914 473.945 31.8235 473.93 31.8588C473.916 31.8941 473.908 31.932 473.908 31.9702C473.908 32.0084 473.916 32.0463 473.93 32.0816C473.945 32.1169 473.966 32.149 473.993 32.176L477.656 35.8371C477.697 35.8769 477.748 35.904 477.804 35.9149C477.86 35.9257 477.918 35.92 477.97 35.8983C478.023 35.8766 478.068 35.84 478.1 35.7929C478.132 35.7458 478.15 35.6904 478.151 35.6334V33.424H481.737L485.132 38.5149L481.737 43.6058H476.696C476.31 43.6058 475.94 43.7591 475.667 44.0318C475.395 44.3046 475.241 44.6746 475.241 45.0604C475.241 45.4461 475.395 45.8161 475.667 46.0889C475.94 46.3617 476.31 46.5149 476.696 46.5149H482.514C482.754 46.5153 482.99 46.4564 483.201 46.3435C483.413 46.2306 483.593 46.0671 483.726 45.8676L486.879 41.1374L490.033 45.8676C490.166 46.0667 490.346 46.2299 490.557 46.3428C490.768 46.4557 491.004 46.5148 491.243 46.5149H497.061C497.447 46.5149 497.817 46.3617 498.09 46.0889C498.362 45.8161 498.516 45.4461 498.516 45.0604C498.516 44.6746 498.362 44.3046 498.09 44.0318C497.817 43.7591 497.447 43.6058 497.061 43.6058H492.021L488.628 38.5149L492.021 33.424H495.607V35.6131C495.606 35.6712 495.623 35.7281 495.656 35.7765C495.688 35.8248 495.734 35.8624 495.788 35.8843C495.842 35.9062 495.901 35.9115 495.958 35.8994C496.015 35.8874 496.067 35.8586 496.107 35.8167" fill="#2C2C2C"/>
<path d="M471 58.5454H473.909V61.4546H471V58.5454ZM476.818 58.5454H479.727V61.4546H476.818V58.5454H476.818ZM482.636 58.5454H485.545V61.4546H482.636V58.5454ZM488.454 58.5454H491.364V61.4546H488.455V58.5454H488.454ZM494.273 58.5454H497.182V61.4546H494.273V58.5454ZM500.091 58.5454H503V61.4546H500.091V58.5454H500.091ZM496.105 35.8152L499.764 32.176C499.791 32.149 499.812 32.1169 499.827 32.0816C499.841 32.0463 499.849 32.0084 499.849 31.9702C499.849 31.932 499.841 31.8941 499.827 31.8588C499.812 31.8235 499.791 31.7914 499.764 31.7644L496.098 28.0814C496.057 28.0422 496.005 28.0159 495.949 28.0058C495.893 27.9957 495.836 28.0021 495.783 28.0244C495.731 28.0467 495.687 28.0838 495.655 28.1312C495.624 28.1785 495.607 28.2341 495.607 28.2909V30.5164H491.243C491.003 30.5161 490.767 30.575 490.556 30.6879C490.344 30.8009 490.164 30.9643 490.031 31.1636L486.878 35.8938L483.724 31.1636C483.592 30.9639 483.412 30.8001 483.201 30.6869C482.99 30.5737 482.754 30.5146 482.514 30.5149H478.151V28.3084C478.15 28.2514 478.132 28.196 478.1 28.1489C478.068 28.1018 478.023 28.0652 477.97 28.0435C477.918 28.0218 477.86 28.0161 477.804 28.0269C477.748 28.0378 477.697 28.0649 477.656 28.1047L473.993 31.7644C473.966 31.7914 473.945 31.8235 473.93 31.8588C473.916 31.8941 473.908 31.932 473.908 31.9702C473.908 32.0084 473.916 32.0463 473.93 32.0816C473.945 32.1169 473.966 32.149 473.993 32.176L477.656 35.8371C477.697 35.8769 477.748 35.904 477.804 35.9148C477.86 35.9257 477.918 35.92 477.97 35.8983C478.023 35.8766 478.068 35.84 478.1 35.7929C478.132 35.7458 478.15 35.6904 478.151 35.6334V33.424H481.737L485.132 38.5149L481.737 43.6058H476.696C476.31 43.6058 475.94 43.7591 475.667 44.0318C475.395 44.3046 475.241 44.6746 475.241 45.0604C475.241 45.4461 475.395 45.8161 475.667 46.0889C475.94 46.3617 476.31 46.5149 476.696 46.5149H482.514C482.754 46.5153 482.99 46.4564 483.201 46.3435C483.413 46.2306 483.593 46.0671 483.726 45.8676L486.879 41.1374L490.033 45.8676C490.166 46.0667 490.346 46.2298 490.557 46.3428C490.768 46.4557 491.004 46.5148 491.243 46.5149H497.061C497.447 46.5149 497.817 46.3617 498.09 46.0889C498.362 45.8161 498.516 45.4461 498.516 45.0604C498.516 44.6746 498.362 44.3046 498.09 44.0318C497.817 43.7591 497.447 43.6058 497.061 43.6058H492.021L488.628 38.5149L492.021 33.424H495.607V35.6131C495.606 35.6712 495.623 35.7281 495.656 35.7765C495.688 35.8248 495.734 35.8623 495.788 35.8843C495.842 35.9062 495.901 35.9115 495.958 35.8994C496.015 35.8874 496.067 35.8586 496.107 35.8167" fill="#2C2C2C"/>
<path d="M37.5005 86.6932V93H34.475V78.4545H37.4153V84.0156H37.5431C37.7894 83.3717 38.1871 82.8674 38.7363 82.5028C39.2856 82.1335 39.9745 81.9489 40.8031 81.9489C41.5607 81.9489 42.2212 82.1146 42.7846 82.446C43.3528 82.7727 43.7931 83.2438 44.1056 83.8594C44.4229 84.4702 44.5791 85.2017 44.5744 86.054V93H41.5488V86.5938C41.5536 85.9214 41.3831 85.3982 41.0375 85.0241C40.6966 84.6501 40.2183 84.4631 39.6028 84.4631C39.1909 84.4631 38.8263 84.5507 38.5091 84.7259C38.1966 84.901 37.9503 85.1567 37.7704 85.4929C37.5952 85.8243 37.5053 86.2244 37.5005 86.6932ZM52.4544 78.4545V93H49.3791V81.3736H49.2939L45.9629 83.4616V80.7344L49.5637 78.4545H52.4544Z" fill="black"/>
<path d="M485.37 85.2017L482.6 85.3722C482.553 85.1354 482.451 84.9223 482.295 84.733C482.138 84.5388 481.933 84.3849 481.677 84.2713C481.426 84.1529 481.125 84.0938 480.775 84.0938C480.306 84.0938 479.911 84.1932 479.589 84.392C479.267 84.5862 479.106 84.8466 479.106 85.1733C479.106 85.4337 479.21 85.6539 479.418 85.8338C479.627 86.0137 479.984 86.1581 480.491 86.267L482.465 86.6648C483.526 86.8826 484.317 87.233 484.837 87.7159C485.358 88.1989 485.619 88.8333 485.619 89.6193C485.619 90.3343 485.408 90.9616 484.987 91.5014C484.57 92.0412 483.997 92.4626 483.268 92.7656C482.543 93.0639 481.708 93.2131 480.761 93.2131C479.317 93.2131 478.166 92.9124 477.309 92.3111C476.457 91.705 475.957 90.8812 475.81 89.8395L478.786 89.6832C478.876 90.1236 479.094 90.4598 479.44 90.6918C479.785 90.919 480.228 91.0327 480.768 91.0327C481.298 91.0327 481.724 90.9309 482.046 90.7273C482.373 90.5189 482.539 90.2514 482.543 89.9247C482.539 89.6501 482.423 89.4252 482.195 89.25C481.968 89.0701 481.618 88.9328 481.144 88.8381L479.255 88.4616C478.19 88.2486 477.397 87.8793 476.876 87.3537C476.36 86.8281 476.102 86.1581 476.102 85.3438C476.102 84.643 476.291 84.0393 476.67 83.5327C477.053 83.026 477.591 82.6354 478.282 82.3608C478.978 82.0862 479.792 81.9489 480.725 81.9489C482.103 81.9489 483.187 82.2401 483.978 82.8224C484.773 83.4048 485.237 84.1979 485.37 85.2017ZM487.495 93V90.7841L492.673 85.9901C493.113 85.5639 493.483 85.1804 493.781 84.8395C494.084 84.4986 494.314 84.1648 494.47 83.8381C494.626 83.5066 494.704 83.1491 494.704 82.7656C494.704 82.3395 494.607 81.9725 494.413 81.6648C494.219 81.3523 493.954 81.1132 493.618 80.9474C493.281 80.777 492.9 80.6918 492.474 80.6918C492.029 80.6918 491.641 80.7817 491.309 80.9616C490.978 81.1416 490.722 81.3996 490.542 81.7358C490.362 82.072 490.272 82.4721 490.272 82.9361H487.353C487.353 81.9844 487.569 81.1581 488 80.4574C488.431 79.7566 489.034 79.2145 489.811 78.831C490.587 78.4474 491.482 78.2557 492.495 78.2557C493.537 78.2557 494.444 78.4403 495.216 78.8097C495.992 79.1742 496.596 79.6809 497.027 80.3295C497.458 80.9782 497.673 81.7216 497.673 82.5597C497.673 83.1089 497.564 83.651 497.346 84.1861C497.133 84.7211 496.752 85.3153 496.203 85.9688C495.654 86.6174 494.879 87.3963 493.88 88.3054L491.757 90.3864V90.4858H497.865V93H487.495Z" fill="black"/>
<path d="M254.776 85.2017L252.006 85.3722C251.959 85.1354 251.857 84.9223 251.701 84.733C251.545 84.5388 251.339 84.3849 251.083 84.2713C250.832 84.1529 250.531 84.0938 250.181 84.0938C249.712 84.0938 249.317 84.1932 248.995 84.392C248.673 84.5862 248.512 84.8466 248.512 85.1733C248.512 85.4337 248.616 85.6539 248.825 85.8338C249.033 86.0137 249.39 86.1581 249.897 86.267L251.871 86.6648C252.932 86.8826 253.723 87.233 254.244 87.7159C254.764 88.1989 255.025 88.8333 255.025 89.6193C255.025 90.3343 254.814 90.9616 254.393 91.5014C253.976 92.0412 253.403 92.4626 252.674 92.7656C251.95 93.0639 251.114 93.2131 250.167 93.2131C248.723 93.2131 247.572 92.9124 246.715 92.3111C245.863 91.705 245.363 90.8812 245.217 89.8395L248.192 89.6832C248.282 90.1236 248.5 90.4598 248.846 90.6918C249.192 90.919 249.634 91.0327 250.174 91.0327C250.704 91.0327 251.13 90.9309 251.452 90.7273C251.779 90.5189 251.945 90.2514 251.95 89.9247C251.945 89.6501 251.829 89.4252 251.602 89.25C251.374 89.0701 251.024 88.9328 250.55 88.8381L248.661 88.4616C247.596 88.2486 246.803 87.8793 246.282 87.3537C245.766 86.8281 245.508 86.1581 245.508 85.3438C245.508 84.643 245.697 84.0393 246.076 83.5327C246.46 83.026 246.997 82.6354 247.688 82.3608C248.384 82.0862 249.199 81.9489 250.131 81.9489C251.509 81.9489 252.594 82.2401 253.384 82.8224C254.18 83.4048 254.644 84.1979 254.776 85.2017ZM263.23 78.4545V93H260.154V81.3736H260.069L256.738 83.4616V80.7344L260.339 78.4545H263.23Z" fill="black"/>
<path d="M453.504 58.1094C453.202 58.1094 452.944 58.0033 452.729 57.7912C452.513 57.5791 452.407 57.3205 452.41 57.0156C452.407 56.7173 452.513 56.4621 452.729 56.25C452.944 56.0379 453.202 55.9318 453.504 55.9318C453.796 55.9318 454.049 56.0379 454.265 56.25C454.483 56.4621 454.595 56.7173 454.598 57.0156C454.595 57.2178 454.541 57.4018 454.439 57.5675C454.339 57.7332 454.207 57.8658 454.041 57.9652C453.879 58.0613 453.7 58.1094 453.504 58.1094ZM459.32 47.8182V58H457.475V49.6129H457.415L455.034 51.1342V49.4439L457.565 47.8182H459.32Z" fill="black"/>
<path d="M282.233 35V24.8182H288.378V25.9119H283.466V29.3523H288.06V30.446H283.466V33.9062H288.457V35H282.233ZM293.762 27.3636V28.358H289.805V27.3636H293.762ZM290.958 25.5341H292.131V32.8125C292.131 33.1439 292.179 33.3925 292.276 33.5582C292.375 33.7206 292.501 33.83 292.653 33.8864C292.809 33.9394 292.973 33.9659 293.146 33.9659C293.275 33.9659 293.381 33.9593 293.464 33.946C293.547 33.9295 293.613 33.9162 293.663 33.9062L293.901 34.9602C293.822 34.9901 293.711 35.0199 293.568 35.0497C293.426 35.0829 293.245 35.0994 293.026 35.0994C292.695 35.0994 292.37 35.0282 292.052 34.8857C291.737 34.7431 291.475 34.526 291.266 34.2344C291.061 33.9427 290.958 33.5748 290.958 33.1307V25.5341ZM296.864 30.4062V35H295.691V24.8182H296.864V28.5568H296.964C297.143 28.1624 297.411 27.8492 297.769 27.6172C298.13 27.3819 298.611 27.2642 299.211 27.2642C299.731 27.2642 300.187 27.3686 300.578 27.5774C300.969 27.7829 301.272 28.0994 301.488 28.527C301.707 28.9512 301.816 29.4915 301.816 30.1477V35H300.643V30.2273C300.643 29.6207 300.485 29.1518 300.17 28.8203C299.859 28.4856 299.426 28.3182 298.873 28.3182C298.488 28.3182 298.144 28.3994 297.839 28.5618C297.537 28.7242 297.299 28.9612 297.123 29.2727C296.951 29.5843 296.864 29.9621 296.864 30.4062ZM306.962 24.8182V35H305.729V26.1108H305.669L303.183 27.7614V26.5085L305.729 24.8182H306.962ZM314.285 29.3622V30.456H309.83V29.3622H314.285ZM319.909 24.8182V35H318.676V26.1108H318.616L316.131 27.7614V26.5085L318.676 24.8182H319.909Z" fill="black"/>
<path d="M188.96 35V24.8182H195.104V25.9119H190.192V29.3523H194.786V30.446H190.192V33.9062H195.184V35H188.96ZM200.489 27.3636V28.358H196.531V27.3636H200.489ZM197.685 25.5341H198.858V32.8125C198.858 33.1439 198.906 33.3925 199.002 33.5582C199.102 33.7206 199.228 33.83 199.38 33.8864C199.536 33.9394 199.7 33.9659 199.872 33.9659C200.001 33.9659 200.107 33.9593 200.19 33.946C200.273 33.9295 200.339 33.9162 200.389 33.9062L200.628 34.9602C200.548 34.9901 200.437 35.0199 200.295 35.0497C200.152 35.0829 199.972 35.0994 199.753 35.0994C199.421 35.0994 199.097 35.0282 198.778 34.8857C198.464 34.7431 198.202 34.526 197.993 34.2344C197.787 33.9427 197.685 33.5748 197.685 33.1307V25.5341ZM203.591 30.4062V35H202.418V24.8182H203.591V28.5568H203.69C203.869 28.1624 204.138 27.8492 204.496 27.6172C204.857 27.3819 205.338 27.2642 205.938 27.2642C206.458 27.2642 206.914 27.3686 207.305 27.5774C207.696 27.7829 207.999 28.0994 208.214 28.527C208.433 28.9512 208.543 29.4915 208.543 30.1477V35H207.369V30.2273C207.369 29.6207 207.212 29.1518 206.897 28.8203C206.585 28.4856 206.153 28.3182 205.599 28.3182C205.215 28.3182 204.87 28.3994 204.565 28.5618C204.264 28.7242 204.025 28.9612 203.849 29.2727C203.677 29.5843 203.591 29.9621 203.591 30.4062ZM213.688 24.8182V35H212.455V26.1108H212.396L209.91 27.7614V26.5085L212.455 24.8182H213.688ZM221.011 29.3622V30.456H216.557V29.3622H221.011ZM222.577 35V34.1051L225.938 30.4261C226.333 29.9953 226.657 29.6207 226.913 29.3026C227.168 28.9811 227.357 28.6795 227.479 28.3977C227.605 28.1127 227.668 27.8144 227.668 27.5028C227.668 27.1449 227.582 26.835 227.41 26.5732C227.241 26.3113 227.009 26.1091 226.714 25.9666C226.419 25.8241 226.087 25.7528 225.719 25.7528C225.328 25.7528 224.987 25.834 224.695 25.9964C224.407 26.1555 224.183 26.3793 224.024 26.6676C223.868 26.956 223.79 27.294 223.79 27.6818H222.617C222.617 27.0852 222.755 26.5616 223.03 26.1108C223.305 25.66 223.679 25.3087 224.153 25.0568C224.631 24.8049 225.166 24.679 225.759 24.679C226.356 24.679 226.884 24.8049 227.345 25.0568C227.806 25.3087 228.167 25.6484 228.429 26.076C228.691 26.5036 228.822 26.9792 228.822 27.5028C228.822 27.8774 228.754 28.2436 228.618 28.6016C228.485 28.9562 228.253 29.3523 227.922 29.7898C227.594 30.224 227.138 30.7543 226.555 31.3807L224.268 33.8267V33.9062H229.001V35H222.577Z" fill="black"/>
<path d="M513.233 35V24.8182H519.378V25.9119H514.466V29.3523H519.06V30.446H514.466V33.9062H519.457V35H513.233ZM524.762 27.3636V28.358H520.805V27.3636H524.762ZM521.958 25.5341H523.131V32.8125C523.131 33.1439 523.179 33.3925 523.276 33.5582C523.375 33.7206 523.501 33.83 523.653 33.8864C523.809 33.9394 523.973 33.9659 524.146 33.9659C524.275 33.9659 524.381 33.9593 524.464 33.946C524.547 33.9295 524.613 33.9162 524.663 33.9062L524.901 34.9602C524.822 34.9901 524.711 35.0199 524.568 35.0497C524.426 35.0829 524.245 35.0994 524.026 35.0994C523.695 35.0994 523.37 35.0282 523.052 34.8857C522.737 34.7431 522.475 34.526 522.266 34.2344C522.061 33.9427 521.958 33.5748 521.958 33.1307V25.5341ZM527.864 30.4062V35H526.691V24.8182H527.864V28.5568H527.964C528.143 28.1624 528.411 27.8492 528.769 27.6172C529.13 27.3819 529.611 27.2642 530.211 27.2642C530.731 27.2642 531.187 27.3686 531.578 27.5774C531.969 27.7829 532.272 28.0994 532.488 28.527C532.707 28.9512 532.816 29.4915 532.816 30.1477V35H531.643V30.2273C531.643 29.6207 531.485 29.1518 531.17 28.8203C530.859 28.4856 530.426 28.3182 529.873 28.3182C529.488 28.3182 529.144 28.3994 528.839 28.5618C528.537 28.7242 528.299 28.9612 528.123 29.2727C527.951 29.5843 527.864 29.9621 527.864 30.4062ZM537.962 24.8182V35H536.729V26.1108H536.669L534.183 27.7614V26.5085L536.729 24.8182H537.962ZM545.285 29.3622V30.456H540.83V29.3622H545.285ZM546.851 35V34.1051L550.212 30.4261C550.606 29.9953 550.931 29.6207 551.186 29.3026C551.441 28.9811 551.63 28.6795 551.753 28.3977C551.879 28.1127 551.942 27.8144 551.942 27.5028C551.942 27.1449 551.856 26.835 551.683 26.5732C551.514 26.3113 551.282 26.1091 550.987 25.9666C550.692 25.8241 550.361 25.7528 549.993 25.7528C549.602 25.7528 549.26 25.834 548.969 25.9964C548.68 26.1555 548.457 26.3793 548.298 26.6676C548.142 26.956 548.064 27.294 548.064 27.6818H546.891C546.891 27.0852 547.028 26.5616 547.303 26.1108C547.578 25.66 547.953 25.3087 548.427 25.0568C548.904 24.8049 549.439 24.679 550.033 24.679C550.629 24.679 551.158 24.8049 551.619 25.0568C552.079 25.3087 552.441 25.6484 552.702 26.076C552.964 26.5036 553.095 26.9792 553.095 27.5028C553.095 27.8774 553.027 28.2436 552.891 28.6016C552.759 28.9562 552.527 29.3523 552.195 29.7898C551.867 30.224 551.411 30.7543 550.828 31.3807L548.541 33.8267V33.9062H553.274V35H546.851Z" fill="black"/>
<path d="M421.45 35V24.8182H427.595V25.9119H422.683V29.3523H427.276V30.446H422.683V33.9062H427.674V35H421.45ZM432.979 27.3636V28.358H429.021V27.3636H432.979ZM430.175 25.5341H431.348V32.8125C431.348 33.1439 431.396 33.3925 431.492 33.5582C431.592 33.7206 431.718 33.83 431.87 33.8864C432.026 33.9394 432.19 33.9659 432.362 33.9659C432.492 33.9659 432.598 33.9593 432.681 33.946C432.763 33.9295 432.83 33.9162 432.879 33.9062L433.118 34.9602C433.039 34.9901 432.927 35.0199 432.785 35.0497C432.642 35.0829 432.462 35.0994 432.243 35.0994C431.912 35.0994 431.587 35.0282 431.269 34.8857C430.954 34.7431 430.692 34.526 430.483 34.2344C430.278 33.9427 430.175 33.5748 430.175 33.1307V25.5341ZM436.081 30.4062V35H434.908V24.8182H436.081V28.5568H436.181C436.36 28.1624 436.628 27.8492 436.986 27.6172C437.347 27.3819 437.828 27.2642 438.428 27.2642C438.948 27.2642 439.404 27.3686 439.795 27.5774C440.186 27.7829 440.489 28.0994 440.705 28.527C440.923 28.9512 441.033 29.4915 441.033 30.1477V35H439.86V30.2273C439.86 29.6207 439.702 29.1518 439.387 28.8203C439.076 28.4856 438.643 28.3182 438.09 28.3182C437.705 28.3182 437.36 28.3994 437.056 28.5618C436.754 28.7242 436.515 28.9612 436.34 29.2727C436.167 29.5843 436.081 29.9621 436.081 30.4062ZM446.178 24.8182V35H444.945V26.1108H444.886L442.4 27.7614V26.5085L444.945 24.8182H446.178ZM453.502 29.3622V30.456H449.047V29.3622H453.502ZM459.126 24.8182V35H457.893V26.1108H457.833L455.347 27.7614V26.5085L457.893 24.8182H459.126Z" fill="black"/>
<path d="M283.033 58.1094C282.732 58.1094 282.473 58.0033 282.258 57.7912C282.042 57.5791 281.936 57.3205 281.94 57.0156C281.936 56.7173 282.042 56.4621 282.258 56.25C282.473 56.0379 282.732 55.9318 283.033 55.9318C283.325 55.9318 283.579 56.0379 283.794 56.25C284.013 56.4621 284.124 56.7173 284.127 57.0156C284.124 57.2178 284.071 57.4018 283.968 57.5675C283.869 57.7332 283.736 57.8658 283.57 57.9652C283.408 58.0613 283.229 58.1094 283.033 58.1094ZM289.332 58.1939C288.514 58.1939 287.811 57.9867 287.224 57.5724C286.641 57.1548 286.192 56.5533 285.877 55.7678C285.566 54.9789 285.41 54.0294 285.41 52.919C285.413 51.8087 285.571 50.8641 285.882 50.0852C286.197 49.303 286.646 48.7064 287.229 48.2955C287.816 47.8845 288.517 47.679 289.332 47.679C290.148 47.679 290.849 47.8845 291.435 48.2955C292.022 48.7064 292.471 49.303 292.783 50.0852C293.098 50.8674 293.255 51.812 293.255 52.919C293.255 54.0327 293.098 54.9839 292.783 55.7727C292.471 56.5582 292.022 57.1581 291.435 57.5724C290.852 57.9867 290.151 58.1939 289.332 58.1939ZM289.332 56.6378C289.969 56.6378 290.471 56.3246 290.839 55.6982C291.21 55.0684 291.396 54.142 291.396 52.919C291.396 52.1103 291.311 51.4309 291.142 50.8807C290.973 50.3305 290.734 49.9162 290.426 49.6378C290.118 49.3561 289.753 49.2152 289.332 49.2152C288.699 49.2152 288.199 49.5301 287.831 50.1598C287.463 50.7862 287.277 51.706 287.274 52.919C287.271 53.7311 287.352 54.4138 287.518 54.9673C287.687 55.5208 287.925 55.9384 288.234 56.2202C288.542 56.4986 288.908 56.6378 289.332 56.6378Z" fill="black"/>
<path d="M221.504 58.1094C221.202 58.1094 220.944 58.0033 220.729 57.7912C220.513 57.5791 220.407 57.3205 220.41 57.0156C220.407 56.7173 220.513 56.4621 220.729 56.25C220.944 56.0379 221.202 55.9318 221.504 55.9318C221.796 55.9318 222.049 56.0379 222.265 56.25C222.483 56.4621 222.595 56.7173 222.598 57.0156C222.595 57.2178 222.541 57.4018 222.439 57.5675C222.339 57.7332 222.207 57.8658 222.041 57.9652C221.879 58.0613 221.7 58.1094 221.504 58.1094ZM227.32 47.8182V58H225.475V49.6129H225.415L223.034 51.1342V49.4439L225.565 47.8182H227.32Z" fill="black"/>
<path d="M72.0334 58.1094C71.7318 58.1094 71.4732 58.0033 71.2578 57.7912C71.0424 57.5791 70.9363 57.3205 70.9396 57.0156C70.9363 56.7173 71.0424 56.4621 71.2578 56.25C71.4732 56.0379 71.7318 55.9318 72.0334 55.9318C72.325 55.9318 72.5786 56.0379 72.794 56.25C73.0128 56.4621 73.1238 56.7173 73.1271 57.0156C73.1238 57.2178 73.0708 57.4018 72.968 57.5675C72.8686 57.7332 72.736 57.8658 72.5703 57.9652C72.4079 58.0613 72.2289 58.1094 72.0334 58.1094ZM74.9654 58V56.6676L78.5002 53.2024C78.8382 52.861 79.12 52.5578 79.3453 52.2926C79.5707 52.0275 79.7398 51.7706 79.8525 51.522C79.9651 51.2734 80.0215 51.0083 80.0215 50.7266C80.0215 50.4051 79.9486 50.13 79.8027 49.9013C79.6569 49.6693 79.4564 49.4903 79.2012 49.3643C78.946 49.2384 78.656 49.1754 78.3311 49.1754C77.9964 49.1754 77.7031 49.245 77.4512 49.3842C77.1993 49.5201 77.0037 49.714 76.8645 49.9659C76.7286 50.2178 76.6607 50.5178 76.6607 50.8658H74.9057C74.9057 50.2195 75.0532 49.6577 75.3482 49.1804C75.6432 48.7031 76.0492 48.3336 76.5662 48.0717C77.0866 47.8099 77.6832 47.679 78.356 47.679C79.0388 47.679 79.6387 47.8066 80.1557 48.0618C80.6728 48.317 81.0738 48.6667 81.3588 49.1108C81.6472 49.5549 81.7914 50.062 81.7914 50.6321C81.7914 51.0133 81.7185 51.3878 81.5726 51.7557C81.4268 52.1236 81.1699 52.5312 80.802 52.9787C80.4374 53.4261 79.9254 53.968 79.2658 54.6044L77.5108 56.3892V56.4588H81.9455V58H74.9654Z" fill="black"/>
<path d="M337.531 47.8182V58H335.686V49.6129H335.626L333.245 51.1342V49.4439L335.776 47.8182H337.531ZM343.879 58.1939C343.061 58.1939 342.358 57.9867 341.771 57.5724C341.188 57.1548 340.739 56.5533 340.424 55.7678C340.112 54.9789 339.957 54.0294 339.957 52.919C339.96 51.8087 340.117 50.8641 340.429 50.0852C340.744 49.303 341.193 48.7064 341.776 48.2955C342.363 47.8845 343.064 47.679 343.879 47.679C344.695 47.679 345.396 47.8845 345.982 48.2955C346.569 48.7064 347.018 49.303 347.33 50.0852C347.644 50.8674 347.802 51.812 347.802 52.919C347.802 54.0327 347.644 54.9839 347.33 55.7727C347.018 56.5582 346.569 57.1581 345.982 57.5724C345.399 57.9867 344.698 58.1939 343.879 58.1939ZM343.879 56.6378C344.516 56.6378 345.018 56.3246 345.386 55.6982C345.757 55.0684 345.942 54.142 345.942 52.919C345.942 52.1103 345.858 51.4309 345.689 50.8807C345.52 50.3305 345.281 49.9162 344.973 49.6378C344.665 49.3561 344.3 49.2152 343.879 49.2152C343.246 49.2152 342.746 49.5301 342.378 50.1598C342.01 50.7862 341.824 51.706 341.821 52.919C341.818 53.7311 341.899 54.4138 342.065 54.9673C342.234 55.5208 342.472 55.9384 342.781 56.2202C343.089 56.4986 343.455 56.6378 343.879 56.6378ZM350.186 58.1094C349.884 58.1094 349.626 58.0033 349.41 57.7912C349.195 57.5791 349.089 57.3205 349.092 57.0156C349.089 56.7173 349.195 56.4621 349.41 56.25C349.626 56.0379 349.884 55.9318 350.186 55.9318C350.477 55.9318 350.731 56.0379 350.946 56.25C351.165 56.4621 351.276 56.7173 351.279 57.0156C351.276 57.2178 351.223 57.4018 351.12 57.5675C351.021 57.7332 350.888 57.8658 350.723 57.9652C350.56 58.0613 350.381 58.1094 350.186 58.1094ZM356.485 58.1939C355.666 58.1939 354.963 57.9867 354.377 57.5724C353.793 57.1548 353.344 56.5533 353.029 55.7678C352.718 54.9789 352.562 54.0294 352.562 52.919C352.565 51.8087 352.723 50.8641 353.034 50.0852C353.349 49.303 353.798 48.7064 354.382 48.2955C354.968 47.8845 355.669 47.679 356.485 47.679C357.3 47.679 358.001 47.8845 358.588 48.2955C359.174 48.7064 359.623 49.303 359.935 50.0852C360.25 50.8674 360.407 51.812 360.407 52.919C360.407 54.0327 360.25 54.9839 359.935 55.7727C359.623 56.5582 359.174 57.1581 358.588 57.5724C358.004 57.9867 357.303 58.1939 356.485 58.1939ZM356.485 56.6378C357.121 56.6378 357.623 56.3246 357.991 55.6982C358.362 55.0684 358.548 54.142 358.548 52.919C358.548 52.1103 358.463 51.4309 358.294 50.8807C358.125 50.3305 357.887 49.9162 357.578 49.6378C357.27 49.3561 356.906 49.2152 356.485 49.2152C355.852 49.2152 355.351 49.5301 354.983 50.1598C354.615 50.7862 354.43 51.706 354.426 52.919C354.423 53.7311 354.504 54.4138 354.67 54.9673C354.839 55.5208 355.078 55.9384 355.386 56.2202C355.694 56.4986 356.06 56.6378 356.485 56.6378ZM362.791 58.1094C362.49 58.1094 362.231 58.0033 362.016 57.7912C361.8 57.5791 361.694 57.3205 361.697 57.0156C361.694 56.7173 361.8 56.4621 362.016 56.25C362.231 56.0379 362.49 55.9318 362.791 55.9318C363.083 55.9318 363.336 56.0379 363.552 56.25C363.771 56.4621 363.882 56.7173 363.885 57.0156C363.882 57.2178 363.829 57.4018 363.726 57.5675C363.626 57.7332 363.494 57.8658 363.328 57.9652C363.166 58.0613 362.987 58.1094 362.791 58.1094ZM369.09 58.1939C368.272 58.1939 367.569 57.9867 366.982 57.5724C366.399 57.1548 365.95 56.5533 365.635 55.7678C365.323 54.9789 365.168 54.0294 365.168 52.919C365.171 51.8087 365.328 50.8641 365.64 50.0852C365.955 49.303 366.404 48.7064 366.987 48.2955C367.574 47.8845 368.275 47.679 369.09 47.679C369.906 47.679 370.607 47.8845 371.193 48.2955C371.78 48.7064 372.229 49.303 372.54 50.0852C372.855 50.8674 373.013 51.812 373.013 52.919C373.013 54.0327 372.855 54.9839 372.54 55.7727C372.229 56.5582 371.78 57.1581 371.193 57.5724C370.61 57.9867 369.909 58.1939 369.09 58.1939ZM369.09 56.6378C369.727 56.6378 370.229 56.3246 370.597 55.6982C370.968 55.0684 371.153 54.142 371.153 52.919C371.153 52.1103 371.069 51.4309 370.9 50.8807C370.731 50.3305 370.492 49.9162 370.184 49.6378C369.876 49.3561 369.511 49.2152 369.09 49.2152C368.457 49.2152 367.957 49.5301 367.589 50.1598C367.221 50.7862 367.035 51.706 367.032 52.919C367.029 53.7311 367.11 54.4138 367.276 54.9673C367.445 55.5208 367.683 55.9384 367.991 56.2202C368.3 56.4986 368.666 56.6378 369.09 56.6378ZM375.397 58.1094C375.095 58.1094 374.837 58.0033 374.621 57.7912C374.406 57.5791 374.3 57.3205 374.303 57.0156C374.3 56.7173 374.406 56.4621 374.621 56.25C374.837 56.0379 375.095 55.9318 375.397 55.9318C375.688 55.9318 375.942 56.0379 376.157 56.25C376.376 56.4621 376.487 56.7173 376.49 57.0156C376.487 57.2178 376.434 57.4018 376.331 57.5675C376.232 57.7332 376.099 57.8658 375.934 57.9652C375.771 58.0613 375.592 58.1094 375.397 58.1094ZM381.696 58.1939C380.877 58.1939 380.174 57.9867 379.588 57.5724C379.004 57.1548 378.555 56.5533 378.24 55.7678C377.929 54.9789 377.773 54.0294 377.773 52.919C377.776 51.8087 377.934 50.8641 378.245 50.0852C378.56 49.303 379.009 48.7064 379.593 48.2955C380.179 47.8845 380.88 47.679 381.696 47.679C382.511 47.679 383.212 47.8845 383.799 48.2955C384.385 48.7064 384.834 49.303 385.146 50.0852C385.461 50.8674 385.618 51.812 385.618 52.919C385.618 54.0327 385.461 54.9839 385.146 55.7727C384.834 56.5582 384.385 57.1581 383.799 57.5724C383.215 57.9867 382.514 58.1939 381.696 58.1939ZM381.696 56.6378C382.332 56.6378 382.834 56.3246 383.202 55.6982C383.573 55.0684 383.759 54.142 383.759 52.919C383.759 52.1103 383.674 51.4309 383.505 50.8807C383.336 50.3305 383.098 49.9162 382.789 49.6378C382.481 49.3561 382.117 49.2152 381.696 49.2152C381.063 49.2152 380.562 49.5301 380.194 50.1598C379.826 50.7862 379.641 51.706 379.637 52.919C379.634 53.7311 379.715 54.4138 379.881 54.9673C380.05 55.5208 380.289 55.9384 380.597 56.2202C380.905 56.4986 381.271 56.6378 381.696 56.6378ZM391.446 47.3409L388.165 59.5312H386.589L389.87 47.3409H391.446ZM396.229 58.1392C395.513 58.1392 394.877 58.0166 394.32 57.7713C393.766 57.526 393.329 57.1847 393.007 56.7472C392.686 56.3097 392.515 55.8042 392.495 55.2308H394.365C394.381 55.5059 394.472 55.7462 394.638 55.9517C394.804 56.1539 395.024 56.3113 395.299 56.424C395.574 56.5367 395.883 56.593 396.224 56.593C396.588 56.593 396.912 56.5301 397.193 56.4041C397.475 56.2749 397.695 56.0959 397.855 55.8672C398.014 55.6385 398.092 55.375 398.088 55.0767C398.092 54.7685 398.012 54.4967 397.85 54.2614C397.687 54.026 397.452 53.8421 397.144 53.7095C396.839 53.5769 396.471 53.5107 396.04 53.5107H395.14V52.0888H396.04C396.395 52.0888 396.704 52.0275 396.97 51.9048C397.238 51.7822 397.449 51.6098 397.601 51.3878C397.753 51.1624 397.828 50.9022 397.825 50.6072C397.828 50.3189 397.763 50.0687 397.631 49.8565C397.502 49.6411 397.318 49.4737 397.079 49.3544C396.844 49.2351 396.567 49.1754 396.249 49.1754C395.937 49.1754 395.649 49.2318 395.384 49.3445C395.119 49.4571 394.905 49.6179 394.742 49.8267C394.58 50.0322 394.494 50.2775 394.484 50.5625H392.709C392.722 49.9924 392.886 49.492 393.201 49.0611C393.519 48.6269 393.944 48.2888 394.474 48.0469C395.004 47.8016 395.599 47.679 396.259 47.679C396.938 47.679 397.528 47.8066 398.029 48.0618C398.532 48.3137 398.922 48.6534 399.197 49.081C399.472 49.5085 399.61 49.9808 399.61 50.4979C399.613 51.0713 399.444 51.5518 399.102 51.9396C398.764 52.3274 398.32 52.581 397.77 52.7003V52.7798C398.486 52.8793 399.035 53.1444 399.416 53.5753C399.8 54.0028 399.991 54.5348 399.987 55.1712C399.987 55.7412 399.825 56.2517 399.5 56.7024C399.179 57.1499 398.735 57.5012 398.168 57.7564C397.604 58.0116 396.958 58.1392 396.229 58.1392ZM405.835 47.8182V58H403.991V49.6129H403.931L401.55 51.1342V49.4439L404.08 47.8182H405.835Z" fill="black"/>
<path d="M107.086 47.8182V58H105.242V49.6129H105.182L102.801 51.1342V49.4439L105.331 47.8182H107.086ZM113.206 47.679C113.693 47.6823 114.167 47.7685 114.628 47.9375C115.092 48.1032 115.51 48.375 115.881 48.7528C116.252 49.1274 116.547 49.6295 116.766 50.2592C116.985 50.889 117.094 51.6679 117.094 52.5959C117.097 53.4709 117.005 54.2531 116.816 54.9425C116.63 55.6286 116.363 56.2086 116.015 56.6825C115.667 57.1565 115.248 57.5178 114.757 57.7663C114.267 58.0149 113.715 58.1392 113.102 58.1392C112.459 58.1392 111.889 58.0133 111.392 57.7614C110.898 57.5095 110.498 57.1648 110.193 56.7273C109.889 56.2898 109.701 55.7893 109.632 55.2259H111.446C111.539 55.6302 111.728 55.9517 112.013 56.1903C112.301 56.4257 112.664 56.5433 113.102 56.5433C113.808 56.5433 114.351 56.2367 114.733 55.6236C115.114 55.0104 115.304 54.1586 115.304 53.0682H115.235C115.072 53.3598 114.862 53.6117 114.603 53.8239C114.345 54.0327 114.051 54.1934 113.723 54.3061C113.398 54.4188 113.054 54.4751 112.689 54.4751C112.093 54.4751 111.556 54.3326 111.078 54.0476C110.604 53.7625 110.228 53.3714 109.95 52.8743C109.675 52.3771 109.536 51.8087 109.532 51.169C109.532 50.5062 109.685 49.9112 109.99 49.3842C110.298 48.8539 110.727 48.4363 111.277 48.1314C111.827 47.8232 112.47 47.6723 113.206 47.679ZM113.211 49.1705C112.853 49.1705 112.53 49.2583 112.242 49.4339C111.957 49.6063 111.731 49.8416 111.566 50.1399C111.403 50.4349 111.322 50.7647 111.322 51.1293C111.325 51.4905 111.407 51.8187 111.566 52.1136C111.728 52.4086 111.948 52.6423 112.227 52.8146C112.509 52.987 112.83 53.0732 113.191 53.0732C113.46 53.0732 113.71 53.0218 113.942 52.919C114.174 52.8163 114.376 52.6738 114.549 52.4915C114.724 52.3059 114.86 52.0954 114.956 51.8601C115.056 51.6248 115.104 51.3762 115.1 51.1143C115.1 50.7663 115.018 50.4448 114.852 50.1499C114.689 49.8549 114.466 49.6179 114.181 49.4389C113.899 49.2599 113.576 49.1705 113.211 49.1705ZM118.75 58V56.6676L122.284 53.2024C122.622 52.861 122.904 52.5578 123.13 52.2926C123.355 52.0275 123.524 51.7706 123.637 51.522C123.749 51.2734 123.806 51.0083 123.806 50.7266C123.806 50.4051 123.733 50.13 123.587 49.9013C123.441 49.6693 123.241 49.4903 122.985 49.3643C122.73 49.2384 122.44 49.1754 122.115 49.1754C121.781 49.1754 121.487 49.245 121.235 49.3842C120.983 49.5201 120.788 49.714 120.649 49.9659C120.513 50.2178 120.445 50.5178 120.445 50.8658H118.69C118.69 50.2195 118.837 49.6577 119.132 49.1804C119.427 48.7031 119.833 48.3336 120.35 48.0717C120.871 47.8099 121.467 47.679 122.14 47.679C122.823 47.679 123.423 47.8066 123.94 48.0618C124.457 48.317 124.858 48.6667 125.143 49.1108C125.431 49.5549 125.576 50.062 125.576 50.6321C125.576 51.0133 125.503 51.3878 125.357 51.7557C125.211 52.1236 124.954 52.5312 124.586 52.9787C124.222 53.4261 123.71 53.968 123.05 54.6044L121.295 56.3892V56.4588H125.73V58H118.75ZM128.573 58.1094C128.272 58.1094 128.013 58.0033 127.798 57.7912C127.582 57.5791 127.476 57.3205 127.48 57.0156C127.476 56.7173 127.582 56.4621 127.798 56.25C128.013 56.0379 128.272 55.9318 128.573 55.9318C128.865 55.9318 129.119 56.0379 129.334 56.25C129.553 56.4621 129.664 56.7173 129.667 57.0156C129.664 57.2178 129.611 57.4018 129.508 57.5675C129.409 57.7332 129.276 57.8658 129.11 57.9652C128.948 58.0613 128.769 58.1094 128.573 58.1094ZM134.389 47.8182V58H132.544V49.6129H132.485L130.103 51.1342V49.4439L132.634 47.8182H134.389ZM140.703 58.1392C140.216 58.1359 139.74 58.0514 139.276 57.8857C138.812 57.7166 138.394 57.4432 138.023 57.0653C137.652 56.6842 137.357 56.1787 137.138 55.549C136.919 54.916 136.812 54.1321 136.815 53.1974C136.815 52.3258 136.908 51.5485 137.093 50.8658C137.279 50.183 137.546 49.6063 137.894 49.1357C138.242 48.6617 138.661 48.3004 139.152 48.0518C139.646 47.8033 140.197 47.679 140.807 47.679C141.447 47.679 142.014 47.8049 142.508 48.0568C143.005 48.3087 143.406 48.6534 143.711 49.0909C144.016 49.5251 144.205 50.0156 144.277 50.5625H142.463C142.37 50.1714 142.179 49.8598 141.891 49.6278C141.606 49.3925 141.245 49.2749 140.807 49.2749C140.101 49.2749 139.558 49.5814 139.177 50.1946C138.799 50.8078 138.608 51.6496 138.605 52.7202H138.674C138.837 52.4285 139.047 52.1783 139.306 51.9695C139.564 51.7607 139.856 51.5999 140.181 51.4872C140.509 51.3712 140.855 51.3132 141.22 51.3132C141.816 51.3132 142.352 51.4557 142.826 51.7408C143.303 52.0258 143.681 52.4186 143.959 52.919C144.238 53.4162 144.375 53.9863 144.372 54.6293C144.375 55.2988 144.223 55.9003 143.915 56.4339C143.606 56.9643 143.177 57.3819 142.627 57.6868C142.077 57.9917 141.435 58.1425 140.703 58.1392ZM140.693 56.6477C141.054 56.6477 141.377 56.5599 141.662 56.3842C141.947 56.2086 142.173 55.9716 142.339 55.6733C142.504 55.375 142.585 55.0402 142.582 54.669C142.585 54.3045 142.506 53.9747 142.343 53.6797C142.184 53.3847 141.964 53.151 141.682 52.9787C141.401 52.8063 141.079 52.7202 140.718 52.7202C140.449 52.7202 140.199 52.7715 139.967 52.8743C139.735 52.977 139.533 53.1196 139.361 53.3018C139.188 53.4808 139.052 53.6896 138.953 53.9283C138.857 54.1636 138.807 54.4155 138.804 54.6839C138.807 55.0386 138.89 55.3651 139.052 55.6634C139.215 55.9616 139.438 56.2003 139.723 56.3793C140.008 56.5582 140.332 56.6477 140.693 56.6477ZM149.672 58.1392C148.932 58.1392 148.276 58.0149 147.703 57.7663C147.133 57.5178 146.685 57.178 146.361 56.7472C146.039 56.313 145.88 55.8208 145.883 55.2706C145.88 54.843 145.973 54.4503 146.162 54.0923C146.351 53.7344 146.606 53.4361 146.927 53.1974C147.252 52.9555 147.613 52.8014 148.011 52.7351V52.6655C147.487 52.5495 147.063 52.2827 146.738 51.8651C146.417 51.4441 146.258 50.9586 146.261 50.4084C146.258 49.8847 146.404 49.4174 146.699 49.0064C146.994 48.5954 147.398 48.2723 147.912 48.0369C148.425 47.7983 149.012 47.679 149.672 47.679C150.325 47.679 150.906 47.7983 151.417 48.0369C151.93 48.2723 152.335 48.5954 152.63 49.0064C152.928 49.4174 153.077 49.8847 153.077 50.4084C153.077 50.9586 152.913 51.4441 152.585 51.8651C152.26 52.2827 151.841 52.5495 151.327 52.6655V52.7351C151.725 52.8014 152.083 52.9555 152.401 53.1974C152.723 53.4361 152.978 53.7344 153.167 54.0923C153.359 54.4503 153.455 54.843 153.455 55.2706C153.455 55.8208 153.293 56.313 152.968 56.7472C152.643 57.178 152.196 57.5178 151.625 57.7663C151.059 58.0149 150.407 58.1392 149.672 58.1392ZM149.672 56.7173C150.053 56.7173 150.384 56.6527 150.666 56.5234C150.948 56.3909 151.166 56.2053 151.322 55.9666C151.478 55.728 151.557 55.4529 151.561 55.1413C151.557 54.8165 151.473 54.5298 151.307 54.2812C151.145 54.0294 150.921 53.8321 150.636 53.6896C150.354 53.5471 150.033 53.4759 149.672 53.4759C149.307 53.4759 148.982 53.5471 148.697 53.6896C148.412 53.8321 148.187 54.0294 148.021 54.2812C147.859 54.5298 147.779 54.8165 147.782 55.1413C147.779 55.4529 147.855 55.728 148.011 55.9666C148.167 56.2019 148.386 56.3859 148.667 56.5185C148.952 56.651 149.287 56.7173 149.672 56.7173ZM149.672 52.0788C149.983 52.0788 150.258 52.0159 150.497 51.8899C150.739 51.764 150.929 51.5883 151.069 51.3629C151.208 51.1375 151.279 50.8774 151.282 50.5824C151.279 50.2907 151.209 50.0355 151.074 49.8168C150.938 49.5947 150.749 49.424 150.507 49.3047C150.265 49.1821 149.986 49.1207 149.672 49.1207C149.35 49.1207 149.067 49.1821 148.821 49.3047C148.58 49.424 148.391 49.5947 148.255 49.8168C148.122 50.0355 148.057 50.2907 148.061 50.5824C148.057 50.8774 148.124 51.1375 148.26 51.3629C148.399 51.585 148.589 51.7607 148.831 51.8899C149.077 52.0159 149.357 52.0788 149.672 52.0788ZM155.917 58.1094C155.616 58.1094 155.357 58.0033 155.142 57.7912C154.926 57.5791 154.82 57.3205 154.823 57.0156C154.82 56.7173 154.926 56.4621 155.142 56.25C155.357 56.0379 155.616 55.9318 155.917 55.9318C156.209 55.9318 156.462 56.0379 156.678 56.25C156.897 56.4621 157.008 56.7173 157.011 57.0156C157.008 57.2178 156.955 57.4018 156.852 57.5675C156.752 57.7332 156.62 57.8658 156.454 57.9652C156.292 58.0613 156.113 58.1094 155.917 58.1094ZM161.733 47.8182V58H159.888V49.6129H159.829L157.447 51.1342V49.4439L159.978 47.8182H161.733ZM164.886 58.1094C164.584 58.1094 164.326 58.0033 164.11 57.7912C163.895 57.5791 163.789 57.3205 163.792 57.0156C163.789 56.7173 163.895 56.4621 164.11 56.25C164.326 56.0379 164.584 55.9318 164.886 55.9318C165.178 55.9318 165.431 56.0379 165.647 56.25C165.865 56.4621 165.976 56.7173 165.98 57.0156C165.976 57.2178 165.923 57.4018 165.821 57.5675C165.721 57.7332 165.589 57.8658 165.423 57.9652C165.26 58.0613 165.081 58.1094 164.886 58.1094ZM171.185 58.1939C170.366 58.1939 169.664 57.9867 169.077 57.5724C168.494 57.1548 168.045 56.5533 167.73 55.7678C167.418 54.9789 167.262 54.0294 167.262 52.919C167.266 51.8087 167.423 50.8641 167.735 50.0852C168.05 49.303 168.499 48.7064 169.082 48.2955C169.669 47.8845 170.37 47.679 171.185 47.679C172 47.679 172.701 47.8845 173.288 48.2955C173.875 48.7064 174.324 49.303 174.635 50.0852C174.95 50.8674 175.108 51.812 175.108 52.919C175.108 54.0327 174.95 54.9839 174.635 55.7727C174.324 56.5582 173.875 57.1581 173.288 57.5724C172.705 57.9867 172.004 58.1939 171.185 58.1939ZM171.185 56.6378C171.821 56.6378 172.323 56.3246 172.691 55.6982C173.063 55.0684 173.248 54.142 173.248 52.919C173.248 52.1103 173.164 51.4309 172.995 50.8807C172.826 50.3305 172.587 49.9162 172.279 49.6378C171.97 49.3561 171.606 49.2152 171.185 49.2152C170.552 49.2152 170.051 49.5301 169.684 50.1598C169.316 50.7862 169.13 51.706 169.127 52.919C169.123 53.7311 169.205 54.4138 169.37 54.9673C169.539 55.5208 169.778 55.9384 170.086 56.2202C170.394 56.4986 170.761 56.6378 171.185 56.6378ZM180.935 47.3409L177.654 59.5312H176.078L179.359 47.3409H180.935ZM182.064 58V56.6676L185.599 53.2024C185.937 52.861 186.219 52.5578 186.444 52.2926C186.669 52.0275 186.838 51.7706 186.951 51.522C187.064 51.2734 187.12 51.0083 187.12 50.7266C187.12 50.4051 187.047 50.13 186.901 49.9013C186.756 49.6693 186.555 49.4903 186.3 49.3643C186.045 49.2384 185.755 49.1754 185.43 49.1754C185.095 49.1754 184.802 49.245 184.55 49.3842C184.298 49.5201 184.102 49.714 183.963 49.9659C183.827 50.2178 183.759 50.5178 183.759 50.8658H182.004C182.004 50.2195 182.152 49.6577 182.447 49.1804C182.742 48.7031 183.148 48.3336 183.665 48.0717C184.185 47.8099 184.782 47.679 185.455 47.679C186.137 47.679 186.737 47.8066 187.254 48.0618C187.771 48.317 188.172 48.6667 188.457 49.1108C188.746 49.5549 188.89 50.062 188.89 50.6321C188.89 51.0133 188.817 51.3878 188.671 51.7557C188.525 52.1236 188.269 52.5312 187.901 52.9787C187.536 53.4261 187.024 53.968 186.364 54.6044L184.609 56.3892V56.4588H189.044V58H182.064ZM190.357 56.1108V54.6442L194.677 47.8182H195.9V49.9062H195.154L192.246 54.5149V54.5945H198.276V56.1108H190.357ZM195.214 58V55.6634L195.234 55.0071V47.8182H196.974V58H195.214Z" fill="black"/>
<path d="M661.278 58.1094C660.976 58.1094 660.717 58.0033 660.502 57.7912C660.287 57.5791 660.18 57.3205 660.184 57.0156C660.18 56.7173 660.287 56.4621 660.502 56.25C660.717 56.0379 660.976 55.9318 661.278 55.9318C661.569 55.9318 661.823 56.0379 662.038 56.25C662.257 56.4621 662.368 56.7173 662.371 57.0156C662.368 57.2178 662.315 57.4018 662.212 57.5675C662.113 57.7332 661.98 57.8658 661.814 57.9652C661.652 58.0613 661.473 58.1094 661.278 58.1094ZM664.21 58V56.6676L667.744 53.2024C668.082 52.861 668.364 52.5578 668.589 52.2926C668.815 52.0275 668.984 51.7706 669.097 51.522C669.209 51.2734 669.266 51.0083 669.266 50.7266C669.266 50.4051 669.193 50.13 669.047 49.9013C668.901 49.6693 668.701 49.4903 668.445 49.3643C668.19 49.2384 667.9 49.1754 667.575 49.1754C667.241 49.1754 666.947 49.245 666.695 49.3842C666.443 49.5201 666.248 49.714 666.109 49.9659C665.973 50.2178 665.905 50.5178 665.905 50.8658H664.15C664.15 50.2195 664.297 49.6577 664.592 49.1804C664.887 48.7031 665.293 48.3336 665.81 48.0717C666.331 47.8099 666.927 47.679 667.6 47.679C668.283 47.679 668.883 47.8066 669.4 48.0618C669.917 48.317 670.318 48.6667 670.603 49.1108C670.891 49.5549 671.036 50.062 671.036 50.6321C671.036 51.0133 670.963 51.3878 670.817 51.7557C670.671 52.1236 670.414 52.5312 670.046 52.9787C669.682 53.4261 669.17 53.968 668.51 54.6044L666.755 56.3892V56.4588H671.19V58H664.21Z" fill="black"/>
<path d="M515.033 58.1094C514.732 58.1094 514.473 58.0033 514.258 57.7912C514.042 57.5791 513.936 57.3205 513.94 57.0156C513.936 56.7173 514.042 56.4621 514.258 56.25C514.473 56.0379 514.732 55.9318 515.033 55.9318C515.325 55.9318 515.579 56.0379 515.794 56.25C516.013 56.4621 516.124 56.7173 516.127 57.0156C516.124 57.2178 516.071 57.4018 515.968 57.5675C515.869 57.7332 515.736 57.8658 515.57 57.9652C515.408 58.0613 515.229 58.1094 515.033 58.1094ZM520.849 47.8182V58H519.004V49.6129H518.945L516.563 51.1342V49.4439L519.094 47.8182H520.849Z" fill="black"/>
<path d="M548.193 47.8182V58H546.348V49.6129H546.289L543.907 51.1342V49.4439L546.438 47.8182H548.193ZM554.313 47.679C554.8 47.6823 555.274 47.7685 555.735 47.9375C556.199 48.1032 556.616 48.375 556.987 48.7528C557.359 49.1274 557.654 49.6295 557.872 50.2592C558.091 50.889 558.2 51.6679 558.2 52.5959C558.204 53.4709 558.111 54.2531 557.922 54.9425C557.736 55.6286 557.47 56.2086 557.122 56.6825C556.774 57.1565 556.354 57.5178 555.864 57.7663C555.373 58.0149 554.821 58.1392 554.208 58.1392C553.565 58.1392 552.995 58.0133 552.498 57.7614C552.004 57.5095 551.605 57.1648 551.3 56.7273C550.995 56.2898 550.808 55.7893 550.738 55.2259H552.553C552.646 55.6302 552.834 55.9517 553.119 56.1903C553.408 56.4257 553.771 56.5433 554.208 56.5433C554.914 56.5433 555.458 56.2367 555.839 55.6236C556.22 55.0104 556.411 54.1586 556.411 53.0682H556.341C556.179 53.3598 555.968 53.6117 555.71 53.8239C555.451 54.0327 555.158 54.1934 554.83 54.3061C554.505 54.4188 554.16 54.4751 553.796 54.4751C553.199 54.4751 552.662 54.3326 552.185 54.0476C551.711 53.7625 551.335 53.3714 551.056 52.8743C550.781 52.3771 550.642 51.8087 550.639 51.169C550.639 50.5062 550.791 49.9112 551.096 49.3842C551.404 48.8539 551.834 48.4363 552.384 48.1314C552.934 47.8232 553.577 47.6723 554.313 47.679ZM554.318 49.1705C553.96 49.1705 553.637 49.2583 553.348 49.4339C553.063 49.6063 552.838 49.8416 552.672 50.1399C552.51 50.4349 552.428 50.7647 552.428 51.1293C552.432 51.4905 552.513 51.8187 552.672 52.1136C552.834 52.4086 553.055 52.6423 553.333 52.8146C553.615 52.987 553.936 53.0732 554.298 53.0732C554.566 53.0732 554.816 53.0218 555.048 52.919C555.28 52.8163 555.483 52.6738 555.655 52.4915C555.831 52.3059 555.967 52.0954 556.063 51.8601C556.162 51.6248 556.21 51.3762 556.207 51.1143C556.207 50.7663 556.124 50.4448 555.958 50.1499C555.796 49.8549 555.572 49.6179 555.287 49.4389C555.005 49.2599 554.682 49.1705 554.318 49.1705ZM559.856 58V56.6676L563.391 53.2024C563.729 52.861 564.011 52.5578 564.236 52.2926C564.461 52.0275 564.63 51.7706 564.743 51.522C564.856 51.2734 564.912 51.0083 564.912 50.7266C564.912 50.4051 564.839 50.13 564.693 49.9013C564.548 49.6693 564.347 49.4903 564.092 49.3643C563.837 49.2384 563.547 49.1754 563.222 49.1754C562.887 49.1754 562.594 49.245 562.342 49.3842C562.09 49.5201 561.894 49.714 561.755 49.9659C561.619 50.2178 561.551 50.5178 561.551 50.8658H559.796C559.796 50.2195 559.944 49.6577 560.239 49.1804C560.534 48.7031 560.94 48.3336 561.457 48.0717C561.977 47.8099 562.574 47.679 563.247 47.679C563.929 47.679 564.529 47.8066 565.046 48.0618C565.563 48.317 565.964 48.6667 566.249 49.1108C566.538 49.5549 566.682 50.062 566.682 50.6321C566.682 51.0133 566.609 51.3878 566.463 51.7557C566.317 52.1236 566.061 52.5312 565.693 52.9787C565.328 53.4261 564.816 53.968 564.156 54.6044L562.401 56.3892V56.4588H566.836V58H559.856ZM569.68 58.1094C569.378 58.1094 569.12 58.0033 568.904 57.7912C568.689 57.5791 568.583 57.3205 568.586 57.0156C568.583 56.7173 568.689 56.4621 568.904 56.25C569.12 56.0379 569.378 55.9318 569.68 55.9318C569.972 55.9318 570.225 56.0379 570.441 56.25C570.659 56.4621 570.77 56.7173 570.774 57.0156C570.77 57.2178 570.717 57.4018 570.615 57.5675C570.515 57.7332 570.383 57.8658 570.217 57.9652C570.054 58.0613 569.875 58.1094 569.68 58.1094ZM575.495 47.8182V58H573.651V49.6129H573.591L571.21 51.1342V49.4439L573.74 47.8182H575.495ZM581.809 58.1392C581.322 58.1359 580.846 58.0514 580.382 57.8857C579.918 57.7166 579.501 57.4432 579.13 57.0653C578.758 56.6842 578.463 56.1787 578.245 55.549C578.026 54.916 577.918 54.1321 577.922 53.1974C577.922 52.3258 578.014 51.5485 578.2 50.8658C578.386 50.183 578.652 49.6063 579 49.1357C579.348 48.6617 579.768 48.3004 580.258 48.0518C580.752 47.8033 581.304 47.679 581.914 47.679C582.553 47.679 583.12 47.8049 583.614 48.0568C584.111 48.3087 584.512 48.6534 584.817 49.0909C585.122 49.5251 585.311 50.0156 585.384 50.5625H583.569C583.476 50.1714 583.286 49.8598 582.998 49.6278C582.712 49.3925 582.351 49.2749 581.914 49.2749C581.208 49.2749 580.664 49.5814 580.283 50.1946C579.905 50.8078 579.715 51.6496 579.711 52.7202H579.781C579.943 52.4285 580.154 52.1783 580.412 51.9695C580.671 51.7607 580.962 51.5999 581.287 51.4872C581.615 51.3712 581.962 51.3132 582.326 51.3132C582.923 51.3132 583.458 51.4557 583.932 51.7408C584.409 52.0258 584.787 52.4186 585.066 52.919C585.344 53.4162 585.482 53.9863 585.478 54.6293C585.482 55.2988 585.329 55.9003 585.021 56.4339C584.713 56.9643 584.283 57.3819 583.733 57.6868C583.183 57.9917 582.542 58.1425 581.809 58.1392ZM581.799 56.6477C582.161 56.6477 582.484 56.5599 582.769 56.3842C583.054 56.2086 583.279 55.9716 583.445 55.6733C583.611 55.375 583.692 55.0402 583.689 54.669C583.692 54.3045 583.612 53.9747 583.45 53.6797C583.291 53.3847 583.07 53.151 582.789 52.9787C582.507 52.8063 582.185 52.7202 581.824 52.7202C581.556 52.7202 581.306 52.7715 581.074 52.8743C580.842 52.977 580.639 53.1196 580.467 53.3018C580.295 53.4808 580.159 53.6896 580.059 53.9283C579.963 54.1636 579.913 54.4155 579.91 54.6839C579.913 55.0386 579.996 55.3651 580.159 55.6634C580.321 55.9616 580.545 56.2003 580.83 56.3793C581.115 56.5582 581.438 56.6477 581.799 56.6477ZM590.778 58.1392C590.039 58.1392 589.383 58.0149 588.809 57.7663C588.239 57.5178 587.792 57.178 587.467 56.7472C587.145 56.313 586.986 55.8208 586.99 55.2706C586.986 54.843 587.079 54.4503 587.268 54.0923C587.457 53.7344 587.712 53.4361 588.034 53.1974C588.359 52.9555 588.72 52.8014 589.118 52.7351V52.6655C588.594 52.5495 588.17 52.2827 587.845 51.8651C587.523 51.4441 587.364 50.9586 587.368 50.4084C587.364 49.8847 587.51 49.4174 587.805 49.0064C588.1 48.5954 588.504 48.2723 589.018 48.0369C589.532 47.7983 590.118 47.679 590.778 47.679C591.431 47.679 592.013 47.7983 592.523 48.0369C593.037 48.2723 593.441 48.5954 593.736 49.0064C594.034 49.4174 594.184 49.8847 594.184 50.4084C594.184 50.9586 594.02 51.4441 593.691 51.8651C593.367 52.2827 592.947 52.5495 592.434 52.6655V52.7351C592.831 52.8014 593.189 52.9555 593.507 53.1974C593.829 53.4361 594.084 53.7344 594.273 54.0923C594.465 54.4503 594.561 54.843 594.561 55.2706C594.561 55.8208 594.399 56.313 594.074 56.7472C593.749 57.178 593.302 57.5178 592.732 57.7663C592.165 58.0149 591.514 58.1392 590.778 58.1392ZM590.778 56.7173C591.159 56.7173 591.491 56.6527 591.772 56.5234C592.054 56.3909 592.273 56.2053 592.429 55.9666C592.584 55.728 592.664 55.4529 592.667 55.1413C592.664 54.8165 592.579 54.5298 592.414 54.2812C592.251 54.0294 592.028 53.8321 591.743 53.6896C591.461 53.5471 591.139 53.4759 590.778 53.4759C590.413 53.4759 590.089 53.5471 589.804 53.6896C589.519 53.8321 589.293 54.0294 589.127 54.2812C588.965 54.5298 588.886 54.8165 588.889 55.1413C588.886 55.4529 588.962 55.728 589.118 55.9666C589.273 56.2019 589.492 56.3859 589.774 56.5185C590.059 56.651 590.394 56.7173 590.778 56.7173ZM590.778 52.0788C591.09 52.0788 591.365 52.0159 591.603 51.8899C591.845 51.764 592.036 51.5883 592.175 51.3629C592.314 51.1375 592.386 50.8774 592.389 50.5824C592.386 50.2907 592.316 50.0355 592.18 49.8168C592.044 49.5947 591.855 49.424 591.613 49.3047C591.371 49.1821 591.093 49.1207 590.778 49.1207C590.457 49.1207 590.173 49.1821 589.928 49.3047C589.686 49.424 589.497 49.5947 589.361 49.8168C589.229 50.0355 589.164 50.2907 589.167 50.5824C589.164 50.8774 589.23 51.1375 589.366 51.3629C589.505 51.585 589.696 51.7607 589.938 51.8899C590.183 52.0159 590.463 52.0788 590.778 52.0788ZM597.024 58.1094C596.722 58.1094 596.463 58.0033 596.248 57.7912C596.033 57.5791 595.927 57.3205 595.93 57.0156C595.927 56.7173 596.033 56.4621 596.248 56.25C596.463 56.0379 596.722 55.9318 597.024 55.9318C597.315 55.9318 597.569 56.0379 597.784 56.25C598.003 56.4621 598.114 56.7173 598.117 57.0156C598.114 57.2178 598.061 57.4018 597.958 57.5675C597.859 57.7332 597.726 57.8658 597.561 57.9652C597.398 58.0613 597.219 58.1094 597.024 58.1094ZM599.956 58V56.6676L603.49 53.2024C603.828 52.861 604.11 52.5578 604.336 52.2926C604.561 52.0275 604.73 51.7706 604.843 51.522C604.955 51.2734 605.012 51.0083 605.012 50.7266C605.012 50.4051 604.939 50.13 604.793 49.9013C604.647 49.6693 604.447 49.4903 604.191 49.3643C603.936 49.2384 603.646 49.1754 603.321 49.1754C602.987 49.1754 602.693 49.245 602.441 49.3842C602.19 49.5201 601.994 49.714 601.855 49.9659C601.719 50.2178 601.651 50.5178 601.651 50.8658H599.896C599.896 50.2195 600.043 49.6577 600.338 49.1804C600.633 48.7031 601.039 48.3336 601.556 48.0717C602.077 47.8099 602.673 47.679 603.346 47.679C604.029 47.679 604.629 47.8066 605.146 48.0618C605.663 48.317 606.064 48.6667 606.349 49.1108C606.637 49.5549 606.782 50.062 606.782 50.6321C606.782 51.0133 606.709 51.3878 606.563 51.7557C606.417 52.1236 606.16 52.5312 605.792 52.9787C605.428 53.4261 604.916 53.968 604.256 54.6044L602.501 56.3892V56.4588H606.936V58H599.956ZM609.779 58.1094C609.478 58.1094 609.219 58.0033 609.004 57.7912C608.788 57.5791 608.682 57.3205 608.686 57.0156C608.682 56.7173 608.788 56.4621 609.004 56.25C609.219 56.0379 609.478 55.9318 609.779 55.9318C610.071 55.9318 610.325 56.0379 610.54 56.25C610.759 56.4621 610.87 56.7173 610.873 57.0156C610.87 57.2178 610.817 57.4018 610.714 57.5675C610.615 57.7332 610.482 57.8658 610.316 57.9652C610.154 58.0613 609.975 58.1094 609.779 58.1094ZM616.078 58.1939C615.26 58.1939 614.557 57.9867 613.971 57.5724C613.387 57.1548 612.938 56.5533 612.623 55.7678C612.312 54.9789 612.156 54.0294 612.156 52.919C612.159 51.8087 612.317 50.8641 612.628 50.0852C612.943 49.303 613.392 48.7064 613.975 48.2955C614.562 47.8845 615.263 47.679 616.078 47.679C616.894 47.679 617.595 47.8845 618.181 48.2955C618.768 48.7064 619.217 49.303 619.529 50.0852C619.844 50.8674 620.001 51.812 620.001 52.919C620.001 54.0327 619.844 54.9839 619.529 55.7727C619.217 56.5582 618.768 57.1581 618.181 57.5724C617.598 57.9867 616.897 58.1939 616.078 58.1939ZM616.078 56.6378C616.715 56.6378 617.217 56.3246 617.585 55.6982C617.956 55.0684 618.142 54.142 618.142 52.919C618.142 52.1103 618.057 51.4309 617.888 50.8807C617.719 50.3305 617.48 49.9162 617.172 49.6378C616.864 49.3561 616.499 49.2152 616.078 49.2152C615.445 49.2152 614.945 49.5301 614.577 50.1598C614.209 50.7862 614.024 51.706 614.02 52.919C614.017 53.7311 614.098 54.4138 614.264 54.9673C614.433 55.5208 614.672 55.9384 614.98 56.2202C615.288 56.4986 615.654 56.6378 616.078 56.6378ZM625.829 47.3409L622.548 59.5312H620.972L624.253 47.3409H625.829ZM626.958 58V56.6676L630.492 53.2024C630.83 52.861 631.112 52.5578 631.338 52.2926C631.563 52.0275 631.732 51.7706 631.845 51.522C631.957 51.2734 632.014 51.0083 632.014 50.7266C632.014 50.4051 631.941 50.13 631.795 49.9013C631.649 49.6693 631.449 49.4903 631.193 49.3643C630.938 49.2384 630.648 49.1754 630.323 49.1754C629.989 49.1754 629.695 49.245 629.443 49.3842C629.191 49.5201 628.996 49.714 628.857 49.9659C628.721 50.2178 628.653 50.5178 628.653 50.8658H626.898C626.898 50.2195 627.045 49.6577 627.34 49.1804C627.635 48.7031 628.041 48.3336 628.558 48.0717C629.079 47.8099 629.675 47.679 630.348 47.679C631.031 47.679 631.631 47.8066 632.148 48.0618C632.665 48.317 633.066 48.6667 633.351 49.1108C633.639 49.5549 633.784 50.062 633.784 50.6321C633.784 51.0133 633.711 51.3878 633.565 51.7557C633.419 52.1236 633.162 52.5312 632.794 52.9787C632.43 53.4261 631.918 53.968 631.258 54.6044L629.503 56.3892V56.4588H633.938V58H626.958ZM635.25 56.1108V54.6442L639.57 47.8182H640.794V49.9062H640.048L637.139 54.5149V54.5945H643.17V56.1108H635.25ZM640.107 58V55.6634L640.127 55.0071V47.8182H641.867V58H640.107Z" fill="black"/>
<path d="M23.6364 47.8181H64.3636V36.1819H23.6364V47.8181ZM23.6364 50.7273V60.9091C23.6364 61.2949 23.7896 61.6648 24.0624 61.9376C24.3352 62.2104 24.7052 62.3636 25.0909 62.3636H62.9091C63.2948 62.3636 63.6648 62.2104 63.9376 61.9376C64.2104 61.6648 64.3636 61.2948 64.3636 60.9091V50.7273H23.6364ZM23.6364 33.2728H64.3636V23.0909C64.3636 22.7051 64.2104 22.3352 63.9376 22.0624C63.6648 21.7896 63.2948 21.6364 62.9091 21.6364H25.0909C24.7052 21.6364 24.3352 21.7896 24.0624 22.0624C23.7896 22.3352 23.6364 22.7052 23.6364 23.0909V33.2728ZM64.3636 18.7273C64.7457 18.7272 65.124 18.8025 65.4769 18.9487C65.8299 19.0949 66.1506 19.3092 66.4207 19.5793C66.6908 19.8494 66.9051 20.1701 67.0513 20.5231C67.1975 20.876 67.2728 21.2543 67.2728 21.6364V62.3636C67.2728 62.7457 67.1975 63.124 67.0513 63.4769C66.9051 63.8299 66.6908 64.1506 66.4207 64.4207C66.1506 64.6908 65.8299 64.9051 65.4769 65.0513C65.124 65.1975 64.7457 65.2728 64.3636 65.2728H23.6364C23.2543 65.2728 22.876 65.1975 22.5231 65.0513C22.1701 64.9051 21.8494 64.6908 21.5793 64.4207C21.3092 64.1506 21.0949 63.8299 20.9487 63.4769C20.8025 63.124 20.7272 62.7457 20.7273 62.3636V21.6364C20.7272 21.2543 20.8025 20.876 20.9487 20.5231C21.0949 20.1701 21.3092 19.8494 21.5793 19.5793C21.8494 19.3092 22.1701 19.0949 22.5231 18.9487C22.876 18.8025 23.2543 18.7272 23.6364 18.7273H64.3636ZM29.4546 28.9091C29.0688 28.9091 28.6988 28.7559 28.426 28.4831C28.1532 28.2103 28 27.8403 28 27.4546C28 27.0688 28.1532 26.6988 28.426 26.426C28.6988 26.1532 29.0688 26 29.4546 26C29.8387 26.0025 30.2062 26.1569 30.4769 26.4294C30.7476 26.7019 30.8996 27.0704 30.8996 27.4545C30.8996 27.8387 30.7476 28.2072 30.4769 28.4797C30.2062 28.7522 29.8387 28.9066 29.4546 28.9091ZM33.8182 28.9091C33.4324 28.9091 33.0624 28.7559 32.7897 28.4831C32.5169 28.2103 32.3636 27.8403 32.3636 27.4546C32.3636 27.0688 32.5169 26.6988 32.7897 26.426C33.0624 26.1532 33.4324 26 33.8182 26C34.2023 26.0025 34.5698 26.1569 34.8406 26.4294C35.1113 26.7019 35.2632 27.0704 35.2632 27.4545C35.2632 27.8387 35.1113 28.2072 34.8406 28.4797C34.5698 28.7522 34.2023 28.9066 33.8182 28.9091ZM38.1818 28.9091C37.796 28.9091 37.4261 28.7559 37.1533 28.4831C36.8805 28.2103 36.7273 27.8403 36.7273 27.4546C36.7273 27.0688 36.8805 26.6988 37.1533 26.426C37.4261 26.1532 37.796 26 38.1818 26C38.5659 26.0025 38.9335 26.1569 39.2042 26.4294C39.4749 26.7019 39.6268 27.0704 39.6268 27.4545C39.6268 27.8387 39.4749 28.2072 39.2042 28.4797C38.9335 28.7522 38.5659 28.9066 38.1818 28.9091ZM46.9091 26H58.5454C58.9296 26.0025 59.2971 26.1569 59.5678 26.4294C59.8385 26.7019 59.9905 27.0704 59.9905 27.4545C59.9905 27.8387 59.8385 28.2072 59.5678 28.4797C59.2971 28.7522 58.9296 28.9065 58.5454 28.9091H46.9091C46.5249 28.9065 46.1574 28.7522 45.8867 28.4797C45.616 28.2072 45.464 27.8387 45.464 27.4545C45.464 27.0704 45.616 26.7019 45.8867 26.4294C46.1574 26.1569 46.5249 26.0025 46.9091 26ZM29.4546 43.4546C29.0688 43.4546 28.6988 43.3013 28.426 43.0285C28.1532 42.7557 28 42.3858 28 42C28 41.6142 28.1532 41.2443 28.426 40.9715C28.6988 40.6987 29.0688 40.5454 29.4546 40.5454C29.8403 40.5454 30.2103 40.6987 30.4831 40.9715C30.7559 41.2443 30.9091 41.6142 30.9091 42C30.9091 42.3858 30.7559 42.7557 30.4831 43.0285C30.2103 43.3013 29.8403 43.4546 29.4546 43.4546ZM33.8182 43.4546C33.4324 43.4546 33.0624 43.3013 32.7897 43.0285C32.5169 42.7557 32.3636 42.3858 32.3636 42C32.3636 41.6142 32.5169 41.2443 32.7897 40.9715C33.0624 40.6987 33.4324 40.5454 33.8182 40.5454C34.204 40.5454 34.5739 40.6987 34.8467 40.9715C35.1195 41.2443 35.2728 41.6142 35.2728 42C35.2728 42.3858 35.1195 42.7557 34.8467 43.0285C34.5739 43.3013 34.204 43.4546 33.8182 43.4546ZM38.1818 43.4546C37.796 43.4546 37.4261 43.3013 37.1533 43.0285C36.8805 42.7557 36.7273 42.3858 36.7273 42C36.7273 41.6142 36.8805 41.2443 37.1533 40.9715C37.4261 40.6987 37.796 40.5454 38.1818 40.5454C38.5676 40.5454 38.9376 40.6987 39.2103 40.9715C39.4831 41.2443 39.6364 41.6142 39.6364 42C39.6364 42.3858 39.4831 42.7557 39.2103 43.0285C38.9376 43.3013 38.5676 43.4546 38.1818 43.4546ZM46.9091 40.5454H58.5454C58.9312 40.5454 59.3012 40.6987 59.574 40.9715C59.8468 41.2443 60 41.6142 60 42C60 42.3858 59.8468 42.7557 59.574 43.0285C59.3012 43.3013 58.9312 43.4546 58.5454 43.4546H46.9091C46.5233 43.4546 46.1533 43.3013 45.8805 43.0285C45.6077 42.7557 45.4545 42.3858 45.4545 42C45.4545 41.6142 45.6077 41.2443 45.8805 40.9715C46.1533 40.6987 46.5233 40.5454 46.9091 40.5454ZM29.4546 58C29.2628 58.0013 29.0726 57.9646 28.895 57.892C28.7174 57.8195 28.556 57.7126 28.4199 57.5774C28.2838 57.4422 28.1758 57.2814 28.1021 57.1043C28.0284 56.9272 27.9905 56.7373 27.9905 56.5455C27.9905 56.3537 28.0284 56.1637 28.1021 55.9866C28.1758 55.8095 28.2838 55.6488 28.4199 55.5136C28.556 55.3784 28.7174 55.2714 28.895 55.1989C29.0726 55.1264 29.2628 55.0897 29.4546 55.0909C29.8387 55.0935 30.2062 55.2478 30.4769 55.5203C30.7476 55.7928 30.8996 56.1613 30.8996 56.5455C30.8996 56.9296 30.7476 57.2981 30.4769 57.5706C30.2062 57.8431 29.8387 57.9975 29.4546 58ZM33.8182 58C33.6264 58.0013 33.4362 57.9646 33.2586 57.892C33.0811 57.8195 32.9196 57.7126 32.7835 57.5774C32.6474 57.4422 32.5394 57.2814 32.4657 57.1043C32.392 56.9272 32.3541 56.7373 32.3541 56.5455C32.3541 56.3537 32.392 56.1637 32.4657 55.9866C32.5394 55.8095 32.6474 55.6488 32.7835 55.5136C32.9196 55.3784 33.0811 55.2714 33.2586 55.1989C33.4362 55.1264 33.6264 55.0897 33.8182 55.0909C34.2023 55.0935 34.5698 55.2478 34.8406 55.5203C35.1113 55.7928 35.2632 56.1613 35.2632 56.5455C35.2632 56.9296 35.1113 57.2981 34.8406 57.5706C34.5698 57.8431 34.2023 57.9975 33.8182 58ZM38.1818 58C37.99 58.0013 37.7998 57.9646 37.6223 57.892C37.4447 57.8195 37.2832 57.7126 37.1471 57.5774C37.011 57.4422 36.903 57.2814 36.8294 57.1043C36.7557 56.9272 36.7177 56.7373 36.7177 56.5455C36.7177 56.3537 36.7557 56.1637 36.8294 55.9866C36.903 55.8095 37.011 55.6488 37.1471 55.5136C37.2832 55.3784 37.4447 55.2714 37.6223 55.1989C37.7998 55.1264 37.99 55.0897 38.1818 55.0909C38.5659 55.0935 38.9335 55.2478 39.2042 55.5203C39.4749 55.7928 39.6268 56.1613 39.6268 56.5455C39.6268 56.9296 39.4749 57.2981 39.2042 57.5706C38.9335 57.8431 38.5659 57.9975 38.1818 58ZM46.9091 55.0909H58.5454C58.9296 55.0935 59.2971 55.2478 59.5678 55.5203C59.8385 55.7928 59.9905 56.1613 59.9905 56.5455C59.9905 56.9296 59.8385 57.2981 59.5678 57.5706C59.2971 57.8431 58.9296 57.9975 58.5454 58H46.9091C46.5249 57.9975 46.1574 57.8431 45.8867 57.5706C45.616 57.2981 45.464 56.9296 45.464 56.5455C45.464 56.1613 45.616 55.7928 45.8867 55.5203C46.1574 55.2478 46.5249 55.0935 46.9091 55.0909Z" fill="#2C2C2C"/>
<path d="M689.694 86.6932V93H686.668V78.4545H689.609V84.0156H689.737C689.983 83.3717 690.38 82.8674 690.93 82.5028C691.479 82.1335 692.168 81.9489 692.996 81.9489C693.754 81.9489 694.415 82.1146 694.978 82.446C695.546 82.7727 695.987 83.2438 696.299 83.8594C696.616 84.4702 696.772 85.2017 696.768 86.054V93H693.742V86.5938C693.747 85.9214 693.576 85.3982 693.231 85.0241C692.89 84.6501 692.412 84.4631 691.796 84.4631C691.384 84.4631 691.02 84.5507 690.702 84.7259C690.39 84.901 690.144 85.1567 689.964 85.4929C689.789 85.8243 689.699 86.2244 689.694 86.6932ZM699.12 93V90.7841L704.298 85.9901C704.738 85.5639 705.108 85.1804 705.406 84.8395C705.709 84.4986 705.939 84.1648 706.095 83.8381C706.251 83.5066 706.329 83.1491 706.329 82.7656C706.329 82.3395 706.232 81.9725 706.038 81.6648C705.844 81.3523 705.579 81.1132 705.243 80.9474C704.906 80.777 704.525 80.6918 704.099 80.6918C703.654 80.6918 703.266 80.7817 702.934 80.9616C702.603 81.1416 702.347 81.3996 702.167 81.7358C701.987 82.072 701.897 82.4721 701.897 82.9361H698.978C698.978 81.9844 699.194 81.1581 699.625 80.4574C700.056 79.7566 700.659 79.2145 701.436 78.831C702.212 78.4474 703.107 78.2557 704.12 78.2557C705.162 78.2557 706.069 78.4403 706.841 78.8097C707.617 79.1742 708.221 79.6809 708.652 80.3295C709.083 80.9782 709.298 81.7216 709.298 82.5597C709.298 83.1089 709.189 83.651 708.971 84.1861C708.758 84.7211 708.377 85.3153 707.828 85.9688C707.279 86.6174 706.504 87.3963 705.505 88.3054L703.382 90.3864V90.4858H709.49V93H699.12Z" fill="black"/>
<path d="M677.636 47.8181H718.364V36.1819H677.636V47.8181ZM677.636 50.7273V60.9091C677.636 61.2949 677.79 61.6648 678.062 61.9376C678.335 62.2104 678.705 62.3636 679.091 62.3636H716.909C717.295 62.3636 717.665 62.2104 717.938 61.9376C718.21 61.6648 718.364 61.2948 718.364 60.9091V50.7273H677.636ZM677.636 33.2728H718.364V23.0909C718.364 22.7051 718.21 22.3352 717.938 22.0624C717.665 21.7896 717.295 21.6364 716.909 21.6364H679.091C678.705 21.6364 678.335 21.7896 678.062 22.0624C677.79 22.3352 677.636 22.7052 677.636 23.0909V33.2728ZM718.364 18.7273C718.746 18.7272 719.124 18.8025 719.477 18.9487C719.83 19.0949 720.151 19.3092 720.421 19.5793C720.691 19.8494 720.905 20.1701 721.051 20.5231C721.198 20.876 721.273 21.2543 721.273 21.6364V62.3636C721.273 62.7457 721.198 63.124 721.051 63.4769C720.905 63.8299 720.691 64.1506 720.421 64.4207C720.151 64.6908 719.83 64.9051 719.477 65.0513C719.124 65.1975 718.746 65.2728 718.364 65.2728H677.636C677.254 65.2728 676.876 65.1975 676.523 65.0513C676.17 64.9051 675.849 64.6908 675.579 64.4207C675.309 64.1506 675.095 63.8299 674.949 63.4769C674.802 63.124 674.727 62.7457 674.727 62.3636V21.6364C674.727 21.2543 674.802 20.876 674.949 20.5231C675.095 20.1701 675.309 19.8494 675.579 19.5793C675.849 19.3092 676.17 19.0949 676.523 18.9487C676.876 18.8025 677.254 18.7272 677.636 18.7273H718.364ZM683.455 28.9091C683.069 28.9091 682.699 28.7559 682.426 28.4831C682.153 28.2103 682 27.8403 682 27.4546C682 27.0688 682.153 26.6988 682.426 26.426C682.699 26.1532 683.069 26 683.455 26C683.839 26.0025 684.206 26.1569 684.477 26.4294C684.748 26.7019 684.9 27.0704 684.9 27.4545C684.9 27.8387 684.748 28.2072 684.477 28.4797C684.206 28.7522 683.839 28.9066 683.455 28.9091ZM687.818 28.9091C687.432 28.9091 687.062 28.7559 686.79 28.4831C686.517 28.2103 686.364 27.8403 686.364 27.4546C686.364 27.0688 686.517 26.6988 686.79 26.426C687.062 26.1532 687.432 26 687.818 26C688.202 26.0025 688.57 26.1569 688.841 26.4294C689.111 26.7019 689.263 27.0704 689.263 27.4545C689.263 27.8387 689.111 28.2072 688.841 28.4797C688.57 28.7522 688.202 28.9066 687.818 28.9091ZM692.182 28.9091C691.796 28.9091 691.426 28.7559 691.153 28.4831C690.88 28.2103 690.727 27.8403 690.727 27.4546C690.727 27.0688 690.88 26.6988 691.153 26.426C691.426 26.1532 691.796 26 692.182 26C692.566 26.0025 692.933 26.1569 693.204 26.4294C693.475 26.7019 693.627 27.0704 693.627 27.4545C693.627 27.8387 693.475 28.2072 693.204 28.4797C692.933 28.7522 692.566 28.9066 692.182 28.9091ZM700.909 26H712.545C712.93 26.0025 713.297 26.1569 713.568 26.4294C713.839 26.7019 713.99 27.0704 713.99 27.4545C713.99 27.8387 713.839 28.2072 713.568 28.4797C713.297 28.7522 712.93 28.9065 712.545 28.9091H700.909C700.525 28.9065 700.157 28.7522 699.887 28.4797C699.616 28.2072 699.464 27.8387 699.464 27.4545C699.464 27.0704 699.616 26.7019 699.887 26.4294C700.157 26.1569 700.525 26.0025 700.909 26ZM683.455 43.4546C683.069 43.4546 682.699 43.3013 682.426 43.0285C682.153 42.7557 682 42.3858 682 42C682 41.6142 682.153 41.2443 682.426 40.9715C682.699 40.6987 683.069 40.5454 683.455 40.5454C683.84 40.5454 684.21 40.6987 684.483 40.9715C684.756 41.2443 684.909 41.6142 684.909 42C684.909 42.3858 684.756 42.7557 684.483 43.0285C684.21 43.3013 683.84 43.4546 683.455 43.4546ZM687.818 43.4546C687.432 43.4546 687.062 43.3013 686.79 43.0285C686.517 42.7557 686.364 42.3858 686.364 42C686.364 41.6142 686.517 41.2443 686.79 40.9715C687.062 40.6987 687.432 40.5454 687.818 40.5454C688.204 40.5454 688.574 40.6987 688.847 40.9715C689.119 41.2443 689.273 41.6142 689.273 42C689.273 42.3858 689.119 42.7557 688.847 43.0285C688.574 43.3013 688.204 43.4546 687.818 43.4546ZM692.182 43.4546C691.796 43.4546 691.426 43.3013 691.153 43.0285C690.88 42.7557 690.727 42.3858 690.727 42C690.727 41.6142 690.88 41.2443 691.153 40.9715C691.426 40.6987 691.796 40.5454 692.182 40.5454C692.568 40.5454 692.938 40.6987 693.21 40.9715C693.483 41.2443 693.636 41.6142 693.636 42C693.636 42.3858 693.483 42.7557 693.21 43.0285C692.938 43.3013 692.568 43.4546 692.182 43.4546ZM700.909 40.5454H712.545C712.931 40.5454 713.301 40.6987 713.574 40.9715C713.847 41.2443 714 41.6142 714 42C714 42.3858 713.847 42.7557 713.574 43.0285C713.301 43.3013 712.931 43.4546 712.545 43.4546H700.909C700.523 43.4546 700.153 43.3013 699.881 43.0285C699.608 42.7557 699.454 42.3858 699.454 42C699.454 41.6142 699.608 41.2443 699.881 40.9715C700.153 40.6987 700.523 40.5454 700.909 40.5454ZM683.455 58C683.263 58.0013 683.073 57.9646 682.895 57.892C682.717 57.8195 682.556 57.7126 682.42 57.5774C682.284 57.4422 682.176 57.2814 682.102 57.1043C682.028 56.9272 681.99 56.7373 681.99 56.5455C681.99 56.3537 682.028 56.1637 682.102 55.9866C682.176 55.8095 682.284 55.6488 682.42 55.5136C682.556 55.3784 682.717 55.2714 682.895 55.1989C683.073 55.1264 683.263 55.0897 683.455 55.0909C683.839 55.0935 684.206 55.2478 684.477 55.5203C684.748 55.7928 684.9 56.1613 684.9 56.5455C684.9 56.9296 684.748 57.2981 684.477 57.5706C684.206 57.8431 683.839 57.9975 683.455 58ZM687.818 58C687.626 58.0013 687.436 57.9646 687.259 57.892C687.081 57.8195 686.92 57.7126 686.783 57.5774C686.647 57.4422 686.539 57.2814 686.466 57.1043C686.392 56.9272 686.354 56.7373 686.354 56.5455C686.354 56.3537 686.392 56.1637 686.466 55.9866C686.539 55.8095 686.647 55.6488 686.783 55.5136C686.92 55.3784 687.081 55.2714 687.259 55.1989C687.436 55.1264 687.626 55.0897 687.818 55.0909C688.202 55.0935 688.57 55.2478 688.841 55.5203C689.111 55.7928 689.263 56.1613 689.263 56.5455C689.263 56.9296 689.111 57.2981 688.841 57.5706C688.57 57.8431 688.202 57.9975 687.818 58ZM692.182 58C691.99 58.0013 691.8 57.9646 691.622 57.892C691.445 57.8195 691.283 57.7126 691.147 57.5774C691.011 57.4422 690.903 57.2814 690.829 57.1043C690.756 56.9272 690.718 56.7373 690.718 56.5455C690.718 56.3537 690.756 56.1637 690.829 55.9866C690.903 55.8095 691.011 55.6488 691.147 55.5136C691.283 55.3784 691.445 55.2714 691.622 55.1989C691.8 55.1264 691.99 55.0897 692.182 55.0909C692.566 55.0935 692.933 55.2478 693.204 55.5203C693.475 55.7928 693.627 56.1613 693.627 56.5455C693.627 56.9296 693.475 57.2981 693.204 57.5706C692.933 57.8431 692.566 57.9975 692.182 58ZM700.909 55.0909H712.545C712.93 55.0935 713.297 55.2478 713.568 55.5203C713.839 55.7928 713.99 56.1613 713.99 56.5455C713.99 56.9296 713.839 57.2981 713.568 57.5706C713.297 57.8431 712.93 57.9975 712.545 58H700.909C700.525 57.9975 700.157 57.8431 699.887 57.5706C699.616 57.2981 699.464 56.9296 699.464 56.5455C699.464 56.1613 699.616 55.7928 699.887 55.5203C700.157 55.2478 700.525 55.0935 700.909 55.0909Z" fill="#2C2C2C"/>
<path d="M110.487 120H105.987L114.18 96.7273H119.385L127.589 120H123.089L116.874 101.5H116.692L110.487 120ZM110.635 110.875H122.908V114.261H110.635V110.875ZM142.928 103.125C142.821 102.133 142.375 101.36 141.587 100.807C140.806 100.254 139.791 99.9773 138.541 99.9773C137.662 99.9773 136.909 100.11 136.28 100.375C135.651 100.64 135.17 101 134.837 101.455C134.503 101.909 134.333 102.428 134.325 103.011C134.325 103.496 134.435 103.917 134.655 104.273C134.882 104.629 135.189 104.932 135.575 105.182C135.962 105.424 136.39 105.629 136.859 105.795C137.329 105.962 137.803 106.102 138.28 106.216L140.462 106.761C141.34 106.966 142.185 107.242 142.996 107.591C143.814 107.939 144.545 108.379 145.189 108.909C145.84 109.439 146.356 110.08 146.734 110.83C147.113 111.58 147.303 112.458 147.303 113.466C147.303 114.83 146.954 116.03 146.257 117.068C145.56 118.098 144.553 118.905 143.234 119.489C141.924 120.064 140.337 120.352 138.473 120.352C136.662 120.352 135.09 120.072 133.757 119.511C132.431 118.951 131.393 118.133 130.643 117.057C129.901 115.981 129.5 114.67 129.439 113.125H133.587C133.647 113.936 133.897 114.61 134.337 115.148C134.776 115.686 135.348 116.087 136.053 116.352C136.765 116.617 137.56 116.75 138.439 116.75C139.356 116.75 140.159 116.614 140.848 116.341C141.545 116.061 142.09 115.674 142.484 115.182C142.878 114.682 143.079 114.098 143.087 113.432C143.079 112.826 142.901 112.326 142.553 111.932C142.204 111.53 141.715 111.197 141.087 110.932C140.465 110.659 139.738 110.417 138.905 110.205L136.257 109.523C134.34 109.03 132.825 108.284 131.712 107.284C130.606 106.277 130.053 104.939 130.053 103.273C130.053 101.902 130.424 100.701 131.166 99.6705C131.916 98.6402 132.935 97.8409 134.223 97.2727C135.511 96.697 136.969 96.4091 138.598 96.4091C140.25 96.4091 141.696 96.697 142.939 97.2727C144.189 97.8409 145.17 98.6326 145.882 99.6477C146.594 100.655 146.962 101.814 146.984 103.125H142.928ZM170.186 96.7273V120H166.436L155.47 104.148H155.277V120H151.061V96.7273H154.834L165.788 112.591H165.993V96.7273H170.186ZM191.956 96.7273V120H187.74V100.83H187.604L182.161 104.307V100.443L187.945 96.7273H191.956Z" fill="#E6E6E6"/>
<path d="M549.737 120H545.237L553.43 96.7273H558.635L566.839 120H562.339L556.124 101.5H555.942L549.737 120ZM549.885 110.875H562.158V114.261H549.885V110.875ZM582.178 103.125C582.071 102.133 581.625 101.36 580.837 100.807C580.056 100.254 579.041 99.9773 577.791 99.9773C576.912 99.9773 576.159 100.11 575.53 100.375C574.901 100.64 574.42 101 574.087 101.455C573.753 101.909 573.583 102.428 573.575 103.011C573.575 103.496 573.685 103.917 573.905 104.273C574.132 104.629 574.439 104.932 574.825 105.182C575.212 105.424 575.64 105.629 576.109 105.795C576.579 105.962 577.053 106.102 577.53 106.216L579.712 106.761C580.59 106.966 581.435 107.242 582.246 107.591C583.064 107.939 583.795 108.379 584.439 108.909C585.09 109.439 585.606 110.08 585.984 110.83C586.363 111.58 586.553 112.458 586.553 113.466C586.553 114.83 586.204 116.03 585.507 117.068C584.81 118.098 583.803 118.905 582.484 119.489C581.174 120.064 579.587 120.352 577.723 120.352C575.912 120.352 574.34 120.072 573.007 119.511C571.681 118.951 570.643 118.133 569.893 117.057C569.151 115.981 568.75 114.67 568.689 113.125H572.837C572.897 113.936 573.147 114.61 573.587 115.148C574.026 115.686 574.598 116.087 575.303 116.352C576.015 116.617 576.81 116.75 577.689 116.75C578.606 116.75 579.409 116.614 580.098 116.341C580.795 116.061 581.34 115.674 581.734 115.182C582.128 114.682 582.329 114.098 582.337 113.432C582.329 112.826 582.151 112.326 581.803 111.932C581.454 111.53 580.965 111.197 580.337 110.932C579.715 110.659 578.988 110.417 578.155 110.205L575.507 109.523C573.59 109.03 572.075 108.284 570.962 107.284C569.856 106.277 569.303 104.939 569.303 103.273C569.303 101.902 569.674 100.701 570.416 99.6705C571.166 98.6402 572.185 97.8409 573.473 97.2727C574.761 96.697 576.219 96.4091 577.848 96.4091C579.5 96.4091 580.946 96.697 582.189 97.2727C583.439 97.8409 584.42 98.6326 585.132 99.6477C585.844 100.655 586.212 101.814 586.234 103.125H582.178ZM609.436 96.7273V120H605.686L594.72 104.148H594.527V120H590.311V96.7273H594.084L605.038 112.591H605.243V96.7273H609.436ZM621.74 120V116.955L629.82 109.034C630.592 108.254 631.236 107.561 631.751 106.955C632.267 106.348 632.653 105.761 632.911 105.193C633.168 104.625 633.297 104.019 633.297 103.375C633.297 102.64 633.13 102.011 632.797 101.489C632.464 100.958 632.005 100.549 631.422 100.261C630.839 99.9735 630.176 99.8295 629.433 99.8295C628.668 99.8295 627.998 99.9886 627.422 100.307C626.846 100.617 626.399 101.061 626.081 101.636C625.77 102.212 625.615 102.898 625.615 103.693H621.604C621.604 102.216 621.941 100.932 622.615 99.8409C623.289 98.75 624.217 97.9053 625.399 97.3068C626.589 96.7083 627.952 96.4091 629.49 96.4091C631.051 96.4091 632.422 96.7008 633.604 97.2841C634.786 97.8674 635.702 98.6667 636.354 99.6818C637.013 100.697 637.342 101.856 637.342 103.159C637.342 104.03 637.176 104.886 636.842 105.727C636.509 106.568 635.922 107.5 635.081 108.523C634.248 109.545 633.077 110.784 631.57 112.239L627.558 116.318V116.477H637.695V120H621.74Z" fill="#E6E6E6"/>
</svg>
